<svg fill="none" height="24" viewBox="0 0 25 24" width="25" xmlns="http://www.w3.org/2000/svg">
    <g id="BookBookmark">
        <path
            d="M19.75 2.25H7C6.20435 2.25 5.44129 2.56607 4.87868 3.12868C4.31607 3.69129 4 4.45435 4 5.25V21C4 21.1989 4.07902 21.3897 4.21967 21.5303C4.36032 21.671 4.55109 21.75 4.75 21.75H18.25C18.4489 21.75 18.6397 21.671 18.7803 21.5303C18.921 21.3897 19 21.1989 19 21C19 20.8011 18.921 20.6103 18.7803 20.4697C18.6397 20.329 18.4489 20.25 18.25 20.25H5.5C5.5 19.8522 5.65804 19.4706 5.93934 19.1893C6.22064 18.908 6.60218 18.75 7 18.75H19.75C19.9489 18.75 20.1397 18.671 20.2803 18.5303C20.421 18.3897 20.5 18.1989 20.5 18V3C20.5 2.80109 20.421 2.61032 20.2803 2.46967C20.1397 2.32902 19.9489 2.25 19.75 2.25ZM11.5 3.75H16V10.5L14.1991 9.15C14.0692 9.05263 13.9113 9 13.7491 9C13.5868 9 13.4289 9.05263 13.2991 9.15L11.5 10.5V3.75ZM19 17.25H7C6.47326 17.2493 5.95572 17.388 5.5 17.6522V5.25C5.5 4.85218 5.65804 4.47064 5.93934 4.18934C6.22064 3.90804 6.60218 3.75 7 3.75H10V12C10 12.1393 10.0388 12.2758 10.112 12.3943C10.1852 12.5128 10.29 12.6085 10.4146 12.6708C10.5392 12.7331 10.6786 12.7595 10.8174 12.747C10.9561 12.7345 11.0886 12.6836 11.2 12.6L13.75 10.6875L16.3009 12.6C16.4305 12.6972 16.588 12.7498 16.75 12.75C16.9489 12.75 17.1397 12.671 17.2803 12.5303C17.421 12.3897 17.5 12.1989 17.5 12V3.75H19V17.25Z"
            fill="#7F00FF" id="Vector" />
    </g>
</svg>
