<svg width="22" height="22" viewBox="0 0 22 22" fill="none" xmlns="http://www.w3.org/2000/svg">
<path d="M21.3125 17.8749C21.3125 18.0573 21.2401 18.2321 21.1111 18.3611C20.9822 18.49 20.8073 18.5624 20.625 18.5624H1.375C1.19266 18.5624 1.0178 18.49 0.888864 18.3611C0.759933 18.2321 0.6875 18.0573 0.6875 17.8749C0.6875 17.6926 0.759933 17.5177 0.888864 17.3888C1.0178 17.2599 1.19266 17.1874 1.375 17.1874H20.625C20.8073 17.1874 20.9822 17.2599 21.1111 17.3888C21.2401 17.5177 21.3125 17.6926 21.3125 17.8749ZM1.40078 8.43729C1.35989 8.29311 1.36723 8.13952 1.42168 7.9999C1.47613 7.86028 1.57472 7.74227 1.70242 7.66385L10.6399 2.16385C10.7482 2.09726 10.8729 2.06201 11 2.06201C11.1271 2.06201 11.2518 2.09726 11.3601 2.16385L20.2976 7.66385C20.4253 7.74218 20.524 7.8601 20.5785 7.99966C20.6331 8.13923 20.6405 8.29279 20.5998 8.43699C20.559 8.58118 20.4722 8.70811 20.3527 8.79845C20.2331 8.88879 20.0873 8.9376 19.9375 8.93744H17.875V14.4374H19.25C19.4323 14.4374 19.6072 14.5099 19.7361 14.6388C19.8651 14.7677 19.9375 14.9426 19.9375 15.1249C19.9375 15.3073 19.8651 15.4821 19.7361 15.6111C19.6072 15.74 19.4323 15.8124 19.25 15.8124H2.75C2.56766 15.8124 2.3928 15.74 2.26386 15.6111C2.13493 15.4821 2.0625 15.3073 2.0625 15.1249C2.0625 14.9426 2.13493 14.7677 2.26386 14.6388C2.3928 14.5099 2.56766 14.4374 2.75 14.4374H4.125V8.93744H2.0625C1.91279 8.93749 1.76715 8.88867 1.64771 8.7984C1.52828 8.70813 1.44158 8.58133 1.40078 8.43729ZM12.375 13.7499C12.375 13.9323 12.4474 14.1071 12.5764 14.2361C12.7053 14.365 12.8802 14.4374 13.0625 14.4374C13.2448 14.4374 13.4197 14.365 13.5486 14.2361C13.6776 14.1071 13.75 13.9323 13.75 13.7499V9.62494C13.75 9.44261 13.6776 9.26774 13.5486 9.13881C13.4197 9.00988 13.2448 8.93744 13.0625 8.93744C12.8802 8.93744 12.7053 9.00988 12.5764 9.13881C12.4474 9.26774 12.375 9.44261 12.375 9.62494V13.7499ZM8.25 13.7499C8.25 13.9323 8.32243 14.1071 8.45136 14.2361C8.5803 14.365 8.75516 14.4374 8.9375 14.4374C9.11984 14.4374 9.2947 14.365 9.42364 14.2361C9.55257 14.1071 9.625 13.9323 9.625 13.7499V9.62494C9.625 9.44261 9.55257 9.26774 9.42364 9.13881C9.2947 9.00988 9.11984 8.93744 8.9375 8.93744C8.75516 8.93744 8.5803 9.00988 8.45136 9.13881C8.32243 9.26774 8.25 9.44261 8.25 9.62494V13.7499Z" fill="#3F3F46"/>
</svg>
