<svg width="22" height="22" viewBox="0 0 22 22" fill="none" xmlns="http://www.w3.org/2000/svg">
<path d="M17.875 2.75H15.8125V2.0625C15.8125 1.88016 15.7401 1.7053 15.6111 1.57636C15.4822 1.44743 15.3073 1.375 15.125 1.375C14.9427 1.375 14.7678 1.44743 14.6389 1.57636C14.5099 1.7053 14.4375 1.88016 14.4375 2.0625V2.75H11.6875V2.0625C11.6875 1.88016 11.6151 1.7053 11.4861 1.57636C11.3572 1.44743 11.1823 1.375 11 1.375C10.8177 1.375 10.6428 1.44743 10.5139 1.57636C10.3849 1.7053 10.3125 1.88016 10.3125 2.0625V2.75H7.5625V2.0625C7.5625 1.88016 7.49007 1.7053 7.36114 1.57636C7.2322 1.44743 7.05734 1.375 6.875 1.375C6.69266 1.375 6.5178 1.44743 6.38886 1.57636C6.25993 1.7053 6.1875 1.88016 6.1875 2.0625V2.75H4.125C3.94266 2.75 3.7678 2.82243 3.63886 2.95136C3.50993 3.0803 3.4375 3.25516 3.4375 3.4375V17.1875C3.4375 17.9168 3.72723 18.6163 4.24296 19.132C4.75868 19.6478 5.45815 19.9375 6.1875 19.9375H15.8125C16.5418 19.9375 17.2413 19.6478 17.757 19.132C18.2728 18.6163 18.5625 17.9168 18.5625 17.1875V3.4375C18.5625 3.25516 18.4901 3.0803 18.3611 2.95136C18.2322 2.82243 18.0573 2.75 17.875 2.75ZM10.3125 4.8125C10.3125 4.63016 10.3849 4.4553 10.5139 4.32636C10.6428 4.19743 10.8177 4.125 11 4.125C11.1823 4.125 11.3572 4.19743 11.4861 4.32636C11.6151 4.4553 11.6875 4.63016 11.6875 4.8125V5.5C11.6875 5.68234 11.6151 5.8572 11.4861 5.98614C11.3572 6.11507 11.1823 6.1875 11 6.1875C10.8177 6.1875 10.6428 6.11507 10.5139 5.98614C10.3849 5.8572 10.3125 5.68234 10.3125 5.5V4.8125ZM6.875 6.1875C6.69266 6.1875 6.5178 6.11507 6.38886 5.98614C6.25993 5.8572 6.1875 5.68234 6.1875 5.5V4.8125C6.1875 4.63016 6.25993 4.4553 6.38886 4.32636C6.5178 4.19743 6.69266 4.125 6.875 4.125C7.05734 4.125 7.2322 4.19743 7.36114 4.32636C7.49007 4.4553 7.5625 4.63016 7.5625 4.8125V5.5C7.5625 5.68234 7.49007 5.8572 7.36114 5.98614C7.2322 6.11507 7.05734 6.1875 6.875 6.1875ZM13.75 14.4375H8.25C8.06766 14.4375 7.8928 14.3651 7.76386 14.2361C7.63493 14.1072 7.5625 13.9323 7.5625 13.75C7.5625 13.5677 7.63493 13.3928 7.76386 13.2639C7.8928 13.1349 8.06766 13.0625 8.25 13.0625H13.75C13.9323 13.0625 14.1072 13.1349 14.2361 13.2639C14.3651 13.3928 14.4375 13.5677 14.4375 13.75C14.4375 13.9323 14.3651 14.1072 14.2361 14.2361C14.1072 14.3651 13.9323 14.4375 13.75 14.4375ZM13.75 11.6875H8.25C8.06766 11.6875 7.8928 11.6151 7.76386 11.4861C7.63493 11.3572 7.5625 11.1823 7.5625 11C7.5625 10.8177 7.63493 10.6428 7.76386 10.5139C7.8928 10.3849 8.06766 10.3125 8.25 10.3125H13.75C13.9323 10.3125 14.1072 10.3849 14.2361 10.5139C14.3651 10.6428 14.4375 10.8177 14.4375 11C14.4375 11.1823 14.3651 11.3572 14.2361 11.4861C14.1072 11.6151 13.9323 11.6875 13.75 11.6875ZM15.8125 5.5C15.8125 5.68234 15.7401 5.8572 15.6111 5.98614C15.4822 6.11507 15.3073 6.1875 15.125 6.1875C14.9427 6.1875 14.7678 6.11507 14.6389 5.98614C14.5099 5.8572 14.4375 5.68234 14.4375 5.5V4.8125C14.4375 4.63016 14.5099 4.4553 14.6389 4.32636C14.7678 4.19743 14.9427 4.125 15.125 4.125C15.3073 4.125 15.4822 4.19743 15.6111 4.32636C15.7401 4.4553 15.8125 4.63016 15.8125 4.8125V5.5Z" fill="#3F3F46"/>
</svg>
