<svg width="19" height="19" viewBox="0 0 19 19" fill="none" xmlns="http://www.w3.org/2000/svg">
<path d="M18.2417 11.9086C17.6865 13.721 16.5738 15.3121 15.062 16.4556C13.7347 17.4546 12.1552 18.0638 10.5008 18.215C8.84645 18.3662 7.18269 18.0533 5.69627 17.3114C4.20986 16.5696 2.95963 15.4281 2.08591 14.0151C1.2122 12.6022 0.749579 10.9737 0.749981 9.31244C0.744008 7.37339 1.37437 5.48593 2.54436 3.93962C3.68779 2.4278 5.27891 1.31513 7.09131 0.759935C7.21076 0.723154 7.33798 0.719632 7.45928 0.749748C7.58059 0.779864 7.69138 0.842478 7.77976 0.930856C7.86814 1.01923 7.93076 1.13003 7.96087 1.25134C7.99099 1.37264 7.98746 1.49986 7.95068 1.61931C7.55438 2.93023 7.52115 4.3241 7.85454 5.65241C8.18793 6.98072 8.87545 8.1937 9.84384 9.16209C10.8122 10.1305 12.0252 10.818 13.3535 11.1514C14.6818 11.4848 16.0757 11.4516 17.3866 11.0552C17.5061 11.0185 17.6333 11.0149 17.7546 11.0451C17.8759 11.0752 17.9867 11.1378 18.0751 11.2262C18.1635 11.3145 18.2261 11.4253 18.2562 11.5466C18.2863 11.668 18.2828 11.7952 18.246 11.9146L18.2417 11.9086Z" fill="#3F3F46"/>
</svg>
