<svg width="20" height="20" viewBox="0 0 20 20" fill="none" xmlns="http://www.w3.org/2000/svg">
<path d="M9.6875 13.6719C9.78195 13.7259 9.88886 13.7543 9.99766 13.7543C10.1065 13.7543 10.2134 13.7259 10.3078 13.6719C10.4992 13.5617 14.9953 10.9375 14.9953 6.25392C14.956 4.95494 14.4125 3.72228 13.48 2.81715C12.5474 1.91202 11.2991 1.40554 9.99955 1.40503C8.69997 1.40452 7.45126 1.91003 6.518 2.81443C5.58475 3.71883 5.04029 4.95106 5 6.25001C5 10.9375 9.49844 13.5578 9.6875 13.6719ZM10 4.37501C10.3708 4.37501 10.7334 4.48498 11.0417 4.69101C11.35 4.89704 11.5904 5.18987 11.7323 5.53248C11.8742 5.87509 11.9113 6.25209 11.839 6.61581C11.7666 6.97952 11.588 7.31362 11.3258 7.57584C11.0636 7.83806 10.7295 8.01664 10.3658 8.08899C10.0021 8.16133 9.62508 8.1242 9.28247 7.98229C8.93986 7.84037 8.64702 7.60005 8.44099 7.29171C8.23497 6.98337 8.125 6.62085 8.125 6.25001C8.125 5.75273 8.32254 5.27582 8.67417 4.92419C9.02581 4.57256 9.50272 4.37501 10 4.37501ZM18.75 14.375C18.75 16.811 14.2414 18.125 10 18.125C5.75859 18.125 1.25 16.811 1.25 14.375C1.25 13.2352 2.28281 12.2258 4.15859 11.5336C4.31242 11.4828 4.47997 11.4937 4.62592 11.564C4.77187 11.6343 4.88481 11.7586 4.94094 11.9105C4.99707 12.0625 4.99199 12.2303 4.92679 12.3786C4.86158 12.5269 4.74134 12.6441 4.59141 12.7055C3.30156 13.1828 2.5 13.8219 2.5 14.375C2.5 15.4188 5.35313 16.875 10 16.875C14.6469 16.875 17.5 15.4188 17.5 14.375C17.5 13.8219 16.6984 13.1828 15.4086 12.7063C15.2587 12.6449 15.1384 12.5277 15.0732 12.3794C15.008 12.2311 15.0029 12.0633 15.0591 11.9113C15.1152 11.7593 15.2281 11.6351 15.3741 11.5648C15.52 11.4945 15.6876 11.4836 15.8414 11.5344C17.7172 12.2258 18.75 13.2352 18.75 14.375Z" fill="#4A4AF2"/>
</svg>
