<svg width="32" height="32" viewBox="0 0 32 32" fill="none" xmlns="http://www.w3.org/2000/svg">
<rect width="32" height="32" rx="16" fill="white"/>
<path d="M23.7586 11.732L20.268 8.24061C20.1519 8.1245 20.0141 8.0324 19.8624 7.96957C19.7107 7.90673 19.5482 7.87439 19.384 7.87439C19.2198 7.87439 19.0572 7.90673 18.9056 7.96957C18.7539 8.0324 18.6161 8.1245 18.5 8.24061L8.86641 17.875C8.74983 17.9906 8.65741 18.1283 8.59451 18.28C8.5316 18.4317 8.49948 18.5944 8.50001 18.7586V22.25C8.50001 22.5815 8.6317 22.8994 8.86612 23.1339C9.10054 23.3683 9.41849 23.5 9.75001 23.5H13.2414C13.4056 23.5005 13.5683 23.4684 13.72 23.4055C13.8717 23.3426 14.0094 23.2502 14.125 23.1336L23.7586 13.5C23.8747 13.3839 23.9668 13.2461 24.0296 13.0944C24.0925 12.9427 24.1248 12.7802 24.1248 12.616C24.1248 12.4518 24.0925 12.2893 24.0296 12.1376C23.9668 11.9859 23.8747 11.8481 23.7586 11.732ZM13.2414 22.25H9.75001V18.7586L16.625 11.8836L20.1164 15.375L13.2414 22.25ZM21 14.4906L17.5086 11L19.3836 9.12498L22.875 12.6156L21 14.4906Z" fill="#04BF55"/>
</svg>
