<svg fill="none" height="24" viewBox="0 0 25 24" width="25" xmlns="http://www.w3.org/2000/svg">
    <g id="House">
        <path
            d="M21.2653 9.72831L13.7653 2.65206C13.7616 2.64886 13.7582 2.64541 13.755 2.64175C13.4789 2.39062 13.119 2.25146 12.7458 2.25146C12.3725 2.25146 12.0127 2.39062 11.7366 2.64175L11.7263 2.65206L4.23469 9.72831C4.08187 9.86883 3.95989 10.0395 3.87646 10.2296C3.79303 10.4197 3.74997 10.6251 3.75 10.8327V19.4999C3.75 19.8977 3.90804 20.2792 4.18934 20.5605C4.47064 20.8418 4.85218 20.9999 5.25 20.9999H9.75C10.1478 20.9999 10.5294 20.8418 10.8107 20.5605C11.092 20.2792 11.25 19.8977 11.25 19.4999V14.9999H14.25V19.4999C14.25 19.8977 14.408 20.2792 14.6893 20.5605C14.9706 20.8418 15.3522 20.9999 15.75 20.9999H20.25C20.6478 20.9999 21.0294 20.8418 21.3107 20.5605C21.592 20.2792 21.75 19.8977 21.75 19.4999V10.8327C21.75 10.6251 21.707 10.4197 21.6235 10.2296C21.5401 10.0395 21.4181 9.86883 21.2653 9.72831ZM20.25 19.4999H15.75V14.9999C15.75 14.602 15.592 14.2205 15.3107 13.9392C15.0294 13.6579 14.6478 13.4999 14.25 13.4999H11.25C10.8522 13.4999 10.4706 13.6579 10.1893 13.9392C9.90804 14.2205 9.75 14.602 9.75 14.9999V19.4999H5.25V10.8327L5.26031 10.8233L12.75 3.74987L20.2406 10.8214L20.2509 10.8308L20.25 19.4999Z"
            fill="#464646" id="Vector" />
    </g>
</svg>
