<svg fill="none" height="22" viewBox="0 0 22 22" width="22" xmlns="http://www.w3.org/2000/svg">
    <path
        d="M17.875 6.875H15.125V4.8125C15.125 3.71848 14.6904 2.66927 13.9168 1.89568C13.1432 1.1221 12.094 0.6875 11 0.6875C9.90598 0.6875 8.85677 1.1221 8.08318 1.89568C7.3096 2.66927 6.875 3.71848 6.875 4.8125V6.875H4.125C3.76033 6.875 3.41059 7.01987 3.15273 7.27773C2.89487 7.53559 2.75 7.88533 2.75 8.25V17.875C2.75 18.2397 2.89487 18.5894 3.15273 18.8473C3.41059 19.1051 3.76033 19.25 4.125 19.25H17.875C18.2397 19.25 18.5894 19.1051 18.8473 18.8473C19.1051 18.5894 19.25 18.2397 19.25 17.875V8.25C19.25 7.88533 19.1051 7.53559 18.8473 7.27773C18.5894 7.01987 18.2397 6.875 17.875 6.875ZM8.25 4.8125C8.25 4.08315 8.53973 3.38368 9.05546 2.86796C9.57118 2.35223 10.2707 2.0625 11 2.0625C11.7293 2.0625 12.4288 2.35223 12.9445 2.86796C13.4603 3.38368 13.75 4.08315 13.75 4.8125V6.875H8.25V4.8125ZM17.875 17.875H4.125V8.25H17.875V17.875ZM12.0312 13.0625C12.0312 13.2665 11.9708 13.4658 11.8575 13.6354C11.7441 13.805 11.5831 13.9372 11.3946 14.0153C11.2062 14.0933 10.9989 14.1137 10.7988 14.0739C10.5988 14.0341 10.415 13.9359 10.2708 13.7917C10.1266 13.6475 10.0284 13.4637 9.98856 13.2637C9.94877 13.0636 9.9692 12.8563 10.0472 12.6679C10.1253 12.4794 10.2575 12.3184 10.4271 12.205C10.5967 12.0917 10.796 12.0312 11 12.0312C11.2735 12.0312 11.5358 12.1399 11.7292 12.3333C11.9226 12.5267 12.0312 12.789 12.0312 13.0625Z"
        fill="#464646" />
</svg>
