<svg width="22" height="22" viewBox="0 0 22 22" fill="none" xmlns="http://www.w3.org/2000/svg">
<path d="M14.4375 19.25C14.4375 19.4323 14.365 19.6072 14.2361 19.7361C14.1072 19.8651 13.9323 19.9375 13.75 19.9375H8.24998C8.06764 19.9375 7.89278 19.8651 7.76385 19.7361C7.63491 19.6072 7.56248 19.4323 7.56248 19.25C7.56248 19.0677 7.63491 18.8928 7.76385 18.7639C7.89278 18.6349 8.06764 18.5625 8.24998 18.5625H13.75C13.9323 18.5625 14.1072 18.6349 14.2361 18.7639C14.365 18.8928 14.4375 19.0677 14.4375 19.25ZM19.0618 15.1198C18.584 14.2983 17.875 11.9737 17.875 8.9375C17.875 7.11414 17.1507 5.36545 15.8613 4.07614C14.572 2.78683 12.8233 2.0625 11 2.0625C9.17662 2.0625 7.42793 2.78683 6.13862 4.07614C4.84931 5.36545 4.12498 7.11414 4.12498 8.9375C4.12498 11.9745 3.41514 14.2983 2.93818 15.1198C2.81638 15.3287 2.75181 15.566 2.75098 15.8078C2.75015 16.0496 2.81309 16.2873 2.93346 16.497C3.05382 16.7067 3.22735 16.8809 3.43654 17.0022C3.64573 17.1234 3.8832 17.1873 4.12498 17.1875H17.875C18.1167 17.1872 18.354 17.1231 18.5631 17.0018C18.7722 16.8805 18.9456 16.7063 19.0659 16.4966C19.1861 16.2869 19.249 16.0493 19.2481 15.8076C19.2472 15.5659 19.1827 15.3286 19.0609 15.1198H19.0618Z" fill="#3F3F46"/>
</svg>
