<svg fill="none" height="22" viewBox="0 0 22 22" width="22" xmlns="http://www.w3.org/2000/svg">
    <path
        d="M17.875 2.75H4.125C3.76033 2.75 3.41059 2.89487 3.15273 3.15273C2.89487 3.41059 2.75 3.76033 2.75 4.125V17.875C2.75 18.2397 2.89487 18.5894 3.15273 18.8473C3.41059 19.1051 3.76033 19.25 4.125 19.25H13.4655C13.6462 19.2506 13.8251 19.2152 13.992 19.146C14.1588 19.0769 14.3103 18.9752 14.4375 18.847L18.847 14.4375C18.9752 14.3103 19.0769 14.1588 19.146 13.992C19.2152 13.8251 19.2506 13.6462 19.25 13.4655V4.125C19.25 3.76033 19.1051 3.41059 18.8473 3.15273C18.5894 2.89487 18.2397 2.75 17.875 2.75ZM4.125 4.125H17.875V13.0625H13.75C13.5677 13.0625 13.3928 13.1349 13.2639 13.2639C13.1349 13.3928 13.0625 13.5677 13.0625 13.75V17.875H4.125V4.125ZM16.903 14.4375L14.4375 16.903V14.4375H16.903Z"
        fill="#343330" />
</svg>
