<svg width="22" height="18" viewBox="0 0 22 18" fill="none" xmlns="http://www.w3.org/2000/svg">
<path d="M19.055 16.7457C19.1226 16.8183 19.1751 16.9037 19.2095 16.9968C19.2439 17.0899 19.2595 17.1889 19.2554 17.288C19.2512 17.3872 19.2274 17.4845 19.1854 17.5744C19.1434 17.6643 19.0839 17.745 19.0104 17.8118C18.937 17.8785 18.851 17.93 18.7575 17.9633C18.664 17.9966 18.5648 18.011 18.4657 18.0056C18.3666 18.0003 18.2696 17.9754 18.1802 17.9322C18.0908 17.8891 18.0108 17.8287 17.945 17.7544L13.07 12.3966C12.1884 12.0468 11.2327 11.9256 10.2917 12.0443C9.35065 12.163 8.45494 12.5177 7.68779 13.0754C7.60833 13.1354 7.51771 13.179 7.42121 13.2037C7.32471 13.2283 7.22426 13.2335 7.12574 13.2189C7.02722 13.2043 6.93259 13.1703 6.84737 13.1187C6.76215 13.0672 6.68806 12.9992 6.62941 12.9187C6.57077 12.8382 6.52874 12.7468 6.50579 12.6499C6.48283 12.5529 6.47941 12.4524 6.49573 12.3542C6.51204 12.2559 6.54776 12.1619 6.60081 12.0776C6.65385 11.9933 6.72315 11.9204 6.80466 11.8632C8.02199 10.9731 9.49197 10.4955 11 10.5001C11.12 10.5001 11.239 10.5001 11.3581 10.5094L8.83435 7.7335C7.33203 8.06309 5.92454 8.7306 4.71873 9.68538C4.6414 9.74696 4.55266 9.79264 4.45762 9.81981C4.36258 9.84698 4.2631 9.85509 4.16491 9.84367C4.06672 9.83226 3.97175 9.80155 3.88547 9.7533C3.7992 9.70506 3.7233 9.64024 3.66216 9.56256C3.53855 9.40708 3.48166 9.20891 3.50398 9.01154C3.5263 8.81416 3.62601 8.6337 3.78123 8.50975C4.94364 7.59031 6.27081 6.90112 7.69154 6.47913L5.50341 4.06881C4.1378 4.62346 2.86425 5.38209 1.72623 6.31881C1.6499 6.38136 1.56199 6.42825 1.46754 6.45682C1.37309 6.48539 1.27393 6.49508 1.17573 6.48533C1.07753 6.47558 0.982217 6.44658 0.895225 6.4C0.808234 6.35341 0.731269 6.29014 0.668727 6.21381C0.606185 6.13748 0.55929 6.04958 0.53072 5.95513C0.502149 5.86067 0.492462 5.76152 0.502212 5.66332C0.521903 5.465 0.61957 5.28262 0.773728 5.15631C1.88821 4.2414 3.12047 3.48023 4.43748 2.89319L2.94498 1.25444C2.87735 1.18179 2.82482 1.09645 2.79042 1.00336C2.75602 0.910259 2.74044 0.811262 2.74458 0.7121C2.74873 0.612938 2.77251 0.515585 2.81455 0.425683C2.8566 0.335781 2.91607 0.255117 2.98952 0.188368C3.06297 0.121619 3.14893 0.0701117 3.24244 0.0368313C3.33594 0.00355095 3.43511 -0.0108404 3.53422 -0.00550877C3.63332 -0.000177125 3.73039 0.0247716 3.81978 0.0678913C3.90917 0.111011 3.98911 0.171444 4.05498 0.245688L19.055 16.7457ZM11 15.0001C10.7775 15.0001 10.56 15.066 10.375 15.1897C10.19 15.3133 10.0458 15.489 9.96061 15.6945C9.87546 15.9001 9.85318 16.1263 9.89659 16.3445C9.94 16.5628 10.0471 16.7632 10.2045 16.9206C10.3618 17.0779 10.5623 17.185 10.7805 17.2284C10.9987 17.2719 11.2249 17.2496 11.4305 17.1644C11.6361 17.0793 11.8118 16.9351 11.9354 16.7501C12.059 16.5651 12.125 16.3476 12.125 16.1251C12.125 15.8267 12.0064 15.5405 11.7955 15.3296C11.5845 15.1186 11.2983 15.0001 11 15.0001ZM21.2262 5.15631C19.5255 3.7635 17.5585 2.73246 15.4454 2.12635C13.3324 1.52023 11.1179 1.35178 8.93748 1.63131C8.83801 1.64147 8.74158 1.6714 8.65385 1.71937C8.56612 1.76733 8.48887 1.83235 8.42663 1.91061C8.3644 1.98886 8.31844 2.07877 8.29146 2.17504C8.26448 2.27132 8.25702 2.37201 8.26952 2.47121C8.28202 2.57041 8.31423 2.66611 8.36426 2.75268C8.41428 2.83925 8.48111 2.91494 8.56081 2.97531C8.64052 3.03568 8.73149 3.0795 8.82837 3.10419C8.92526 3.12889 9.0261 3.13397 9.12498 3.11913C9.74684 3.03988 10.3731 3.00012 11 3.00006C14.3813 3.00191 17.6578 4.17348 20.2737 6.316C20.4275 6.44231 20.6252 6.50236 20.8232 6.48293C21.0213 6.4635 21.2035 6.36619 21.3298 6.21241C21.4561 6.05862 21.5162 5.86096 21.4967 5.6629C21.4773 5.46485 21.38 5.28262 21.2262 5.15631ZM17.2812 9.68538C17.3584 9.74657 17.4469 9.79197 17.5416 9.81896C17.6364 9.84596 17.7355 9.85403 17.8333 9.84271C17.9312 9.83139 18.0259 9.80091 18.1119 9.753C18.198 9.7051 18.2738 9.6407 18.335 9.5635C18.3962 9.48631 18.4416 9.39782 18.4686 9.30309C18.4956 9.20836 18.5036 9.10923 18.4923 9.01138C18.481 8.91353 18.4505 8.81886 18.4026 8.73279C18.3547 8.64672 18.2903 8.57093 18.2131 8.50975C16.7946 7.3872 15.1342 6.61043 13.3634 6.241C13.266 6.21859 13.165 6.2159 13.0665 6.23308C12.968 6.25026 12.8739 6.28697 12.7898 6.34105C12.7056 6.39513 12.6332 6.46549 12.5767 6.54798C12.5201 6.63048 12.4807 6.72344 12.4606 6.82141C12.4405 6.91938 12.4403 7.02038 12.4598 7.11845C12.4793 7.21653 12.5183 7.30971 12.5744 7.39251C12.6304 7.47531 12.7025 7.54606 12.7863 7.60059C12.8702 7.65513 12.9641 7.69235 13.0625 7.71006C14.603 8.03206 16.0474 8.70835 17.2812 9.68538Z" fill="#71717A"/>
</svg>
