<svg width="18" height="18" viewBox="0 0 18 18" fill="none" xmlns="http://www.w3.org/2000/svg">
<path d="M16.3336 5.49694C17.2009 7.31085 17.3655 9.38172 16.7958 11.3099C16.226 13.238 14.9622 14.8868 13.2482 15.938C11.5343 16.9891 9.49178 17.3681 7.51483 17.0019C5.53789 16.6356 3.76669 15.55 2.54307 13.9547C1.31946 12.3593 0.730166 10.3672 0.888936 8.3629C1.04771 6.3586 1.94328 4.48415 3.40282 3.10132C4.86235 1.71849 6.78237 0.925315 8.79233 0.874876C10.8023 0.824438 12.7597 1.52031 14.2867 2.82819L16.0578 1.05632C16.1751 0.939041 16.3342 0.873157 16.5 0.873157C16.6659 0.873157 16.8249 0.939041 16.9422 1.05632C17.0595 1.17359 17.1254 1.33265 17.1254 1.4985C17.1254 1.66436 17.0595 1.82342 16.9422 1.94069L12.0938 6.78991L9.14767 9.736L7.27657 11.6071C7.76031 11.927 8.32353 12.1061 8.90322 12.1241C9.48291 12.1422 10.0562 11.9986 10.5589 11.7093C11.0616 11.4201 11.4739 10.9967 11.7497 10.4865C12.0254 9.97628 12.1538 9.39938 12.1203 8.82038C12.111 8.65462 12.1679 8.49194 12.2785 8.36814C12.3891 8.24434 12.5444 8.16955 12.7102 8.16022C12.8759 8.1509 13.0386 8.20781 13.1624 8.31842C13.2862 8.42904 13.361 8.58431 13.3703 8.75007C13.4207 9.63507 13.2011 10.5145 12.7406 11.2719C12.28 12.0293 11.6003 12.629 10.7913 12.9914C9.98237 13.3539 9.0824 13.4621 8.2106 13.3016C7.3388 13.1412 6.53631 12.7197 5.90938 12.093C5.12968 11.3104 4.67492 10.2618 4.63641 9.15773C4.5979 8.05366 4.9785 6.97591 5.70178 6.14086C6.42507 5.30582 7.43748 4.77531 8.53574 4.65587C9.634 4.53643 10.7368 4.8369 11.6227 5.49694L13.3984 3.71804C12.0959 2.63663 10.4398 2.07457 8.74818 2.13981C7.05652 2.20506 5.44862 2.89301 4.23328 4.07152C3.01794 5.25004 2.28087 6.83603 2.16364 8.52488C2.0464 10.2137 2.55726 11.8863 3.5981 13.2215C4.63894 14.5566 6.13637 15.4601 7.80279 15.7585C9.4692 16.0569 11.1871 15.729 12.6265 14.8379C14.0659 13.9469 15.1254 12.5554 15.6014 10.9308C16.0774 9.30619 15.9364 7.56299 15.2055 6.036C15.134 5.88641 15.1249 5.71454 15.1801 5.55821C15.2353 5.40188 15.3504 5.27389 15.5 5.20241C15.6496 5.13093 15.8215 5.1218 15.9778 5.17703C16.1341 5.23227 16.2621 5.34734 16.3336 5.49694Z" fill="#04BF55"/>
</svg>
