<svg fill="none" height="22" viewBox="0 0 22 22" width="22" xmlns="http://www.w3.org/2000/svg">
    <path
        d="M13.0857 3.25944C13.109 3.17218 13.1493 3.09039 13.2043 3.01872C13.2593 2.94705 13.3278 2.88691 13.406 2.84174C13.4842 2.79657 13.5706 2.76725 13.6601 2.75546C13.7497 2.74367 13.8407 2.74964 13.9279 2.77303C15.2024 3.10556 16.3652 3.77183 17.2966 4.70322C18.228 5.6346 18.8943 6.79743 19.2268 8.07194C19.2502 8.15917 19.2562 8.25016 19.2444 8.33971C19.2326 8.42925 19.2033 8.5156 19.1581 8.59381C19.1129 8.67202 19.0528 8.74056 18.9811 8.79553C18.9094 8.85049 18.8277 8.89079 18.7404 8.91412C18.6823 8.92938 18.6225 8.93717 18.5625 8.93733C18.411 8.93732 18.2638 8.88728 18.1436 8.79496C18.0235 8.70265 17.9372 8.57325 17.8982 8.42686C17.627 7.38643 17.0832 6.43715 16.323 5.67688C15.5627 4.9166 14.6134 4.37283 13.573 4.10162C13.4856 4.07838 13.4038 4.03814 13.332 3.98322C13.2602 3.9283 13.2 3.85977 13.1547 3.78155C13.1095 3.70333 13.0801 3.61695 13.0682 3.52736C13.0564 3.43778 13.0623 3.34673 13.0857 3.25944ZM12.8855 6.85162C14.0706 7.16787 14.832 7.92928 15.1482 9.11436C15.1872 9.26075 15.2735 9.39015 15.3936 9.48246C15.5138 9.57478 15.661 9.62482 15.8125 9.62483C15.8725 9.62467 15.9323 9.61688 15.9904 9.60162C16.0777 9.57829 16.1594 9.53799 16.2311 9.48303C16.3028 9.42806 16.3629 9.35952 16.4081 9.28131C16.4533 9.2031 16.4826 9.11675 16.4944 9.02721C16.5062 8.93766 16.5002 8.84667 16.4768 8.75944C16.0368 7.11287 14.887 5.96303 13.2404 5.52303C13.1532 5.49972 13.0622 5.49383 12.9727 5.50568C12.8832 5.51754 12.7969 5.54691 12.7187 5.59211C12.6405 5.63732 12.572 5.69748 12.5171 5.76916C12.4622 5.84084 12.4219 5.92263 12.3986 6.00986C12.3753 6.0971 12.3694 6.18807 12.3813 6.27759C12.3931 6.3671 12.4225 6.45341 12.4677 6.53157C12.5129 6.60974 12.5731 6.67823 12.6448 6.73314C12.7164 6.78806 12.7982 6.82832 12.8855 6.85162ZM19.9272 15.0458C19.774 16.2102 19.2021 17.2791 18.3184 18.0528C17.4346 18.8264 16.2995 19.2519 15.125 19.2498C8.30157 19.2498 2.75001 13.6983 2.75001 6.87483C2.7479 5.70031 3.17341 4.56519 3.94706 3.68147C4.72071 2.79775 5.78959 2.22587 6.95407 2.07264C7.24854 2.03668 7.54674 2.09693 7.80415 2.24437C8.06157 2.39182 8.26439 2.61857 8.38235 2.89076L10.1974 6.94272V6.95303C10.2877 7.16139 10.325 7.38887 10.3059 7.61516C10.2869 7.84144 10.2121 8.05949 10.0882 8.24983C10.0727 8.27303 10.0564 8.29451 10.0392 8.316L8.25001 10.4369C8.89368 11.7449 10.2618 13.101 11.587 13.7464L13.6787 11.9666C13.6992 11.9494 13.7207 11.9333 13.7431 11.9185C13.9333 11.7917 14.1521 11.7142 14.3797 11.6932C14.6074 11.6722 14.8366 11.7083 15.0468 11.7982L15.058 11.8033L19.1065 13.6175C19.3792 13.735 19.6065 13.9377 19.7544 14.1951C19.9023 14.4526 19.963 14.751 19.9272 15.0458ZM18.5625 14.8739C18.5625 14.8739 18.5565 14.8739 18.5531 14.8739L14.514 13.0649L12.4214 14.8447C12.4011 14.8619 12.3799 14.8779 12.3578 14.8928C12.16 15.0248 11.9312 15.1032 11.694 15.1204C11.4568 15.1376 11.2191 15.0929 11.0043 14.9908C9.3947 14.213 7.79024 12.6206 7.01165 11.0282C6.90855 10.8149 6.86228 10.5787 6.87734 10.3423C6.8924 10.1059 6.96826 9.87741 7.09759 9.67897C7.11216 9.65567 7.12854 9.63354 7.14657 9.61279L8.93751 7.48928L7.13282 3.45022C7.13248 3.44679 7.13248 3.44333 7.13282 3.4399C6.29945 3.54861 5.53428 3.95739 4.98061 4.58967C4.42695 5.22196 4.12276 6.03439 4.12501 6.87483C4.12819 9.79123 5.28814 12.5873 7.35035 14.6495C9.41256 16.7117 12.2086 17.8716 15.125 17.8748C15.9649 17.8777 16.7771 17.5746 17.4098 17.0221C18.0424 16.4697 18.4522 15.7057 18.5625 14.873V14.8739Z"
        fill="#343330" />
</svg>
