<svg width="90" height="64" viewBox="0 0 90 64" fill="none" xmlns="http://www.w3.org/2000/svg">
<g clip-path="url(#clip0_3988_16274)">
<path d="M79.4877 57.9456C82.2122 57.9456 84.4209 55.7367 84.4209 53.012C84.4209 50.2872 82.2122 48.0783 79.4877 48.0783C76.7633 48.0783 74.5546 50.2872 74.5546 53.012C74.5546 55.7367 76.7633 57.9456 79.4877 57.9456Z" fill="#4FD489"/>
<path d="M79.4878 45.6702C83.54 45.6702 86.8581 48.9593 86.8581 53.0413C86.8581 57.094 83.5693 60.4124 79.4878 60.4124C75.4062 60.4124 72.1175 57.1233 72.1175 53.0413C72.1175 48.9593 75.4356 45.6702 79.4878 45.6702ZM79.4878 42.528C73.6737 42.528 68.9755 47.2267 68.9755 53.0413C68.9755 58.856 73.6737 63.5547 79.4878 63.5547C85.3018 63.5547 90 58.856 90 53.0413C90 47.2267 85.3018 42.528 79.4878 42.528Z" fill="#4FD489"/>
<path d="M88.9136 44.4074L67.0963 56.213C66.832 55.1851 66.6852 54.1279 66.6852 53.012C66.6852 45.9345 72.4111 40.2373 79.4584 40.2373C83.217 40.2373 86.5938 41.8525 88.9136 44.4074Z" fill="#04BF55"/>
<path d="M31.9478 57.9456C34.6723 57.9456 36.8809 55.7367 36.8809 53.012C36.8809 50.2872 34.6723 48.0783 31.9478 48.0783C29.2233 48.0783 27.0147 50.2872 27.0147 53.012C27.0147 55.7367 29.2233 57.9456 31.9478 57.9456Z" fill="#4FD489"/>
<path d="M31.9478 45.6702C36 45.6702 39.3181 48.9593 39.3181 53.0413C39.3181 57.094 36.0294 60.4124 31.9478 60.4124C27.8662 60.4124 24.5775 57.1233 24.5775 53.0413C24.5775 48.9593 27.8662 45.6702 31.9478 45.6702ZM31.9478 42.528C26.1338 42.528 21.4355 47.2267 21.4355 53.0413C21.4355 58.856 26.1338 63.5547 31.9478 63.5547C37.7618 63.5547 42.46 58.856 42.46 53.0413C42.46 47.2267 37.7325 42.528 31.9478 42.528Z" fill="#4FD489"/>
<path d="M33.1811 43.174H27.2202L22.6688 48.0783L25.9576 50.2221L35.7651 49.576L33.1811 43.174Z" fill="#4FD489"/>
<path d="M77.814 42.3518C84.0685 36.3022 77.814 23.968 77.814 23.968C77.814 23.968 82.5416 23.4101 83.54 20.8258C84.5383 18.2415 79.5465 10.8117 77.0506 11.6633C74.5546 12.4856 73.7031 13.3372 72.8809 15.3342C72.8809 15.3342 71.5595 14.0714 69.7977 14.0714H61.8108C60.9299 14.0714 60.2251 14.7762 60.2251 15.6572C60.2251 16.5382 60.9299 17.243 61.8108 17.243H65.8042C67.801 17.243 69.5628 18.5939 70.0914 20.5321C71.5889 26.1118 73.2626 37.5062 64.7178 44.5249C56.1729 51.5436 49.5954 44.5249 49.2137 40.2667C48.9788 37.653 53.8238 35.2156 54.2643 33.7766C54.7047 32.3376 53.3834 30.5462 50.4763 30.5462H23.6085C22.4339 30.5462 21.4649 31.5154 21.4649 32.69C21.4649 33.8647 22.4339 34.8338 23.6085 34.8338H35.7945C36.969 34.8338 37.938 35.8029 37.938 36.9776V37.007C37.938 38.1817 36.969 39.1508 35.7945 39.1508H2.14356C0.969005 39.1508 0 40.1199 0 41.2945V41.3239C0 42.4986 0.969005 43.4677 2.14356 43.4677H30.5383C31.7129 43.4677 32.6819 44.4368 32.6819 45.6115V45.6409C32.6819 46.8155 31.7129 47.7846 30.5383 47.7846H12.3622C11.1876 47.7846 10.2186 48.7538 10.2186 49.9284V49.9578C10.2186 51.1325 11.1876 52.1016 12.3622 52.1016H23.5498H26.9853L30.0492 52.7217C31.2765 52.9701 32.546 52.9126 33.7457 52.5541L41.2561 50.3102L44.0457 53.4525C45.3964 54.9795 47.3638 55.8606 49.3899 55.8606H58.8744C60.9005 55.8606 62.8385 55.0089 64.1892 53.5112L68.124 49.1649L77.814 42.3518Z" fill="url(#paint0_linear_3988_16274)"/>
<path d="M15.5041 34.8045H8.0163C6.84175 34.8045 5.87274 33.8353 5.87274 32.6607C5.87274 31.486 6.84175 30.5169 8.0163 30.5169H15.5041C16.6786 30.5169 17.6476 31.486 17.6476 32.6607C17.6476 33.8353 16.6786 34.8045 15.5041 34.8045Z" fill="#04BF55"/>
<path d="M37.4388 16.7144C31.0669 16.7144 25.7227 21.1782 24.4013 27.1691C24.1958 28.1382 24.9592 29.0779 25.9576 29.0779H48.9201C49.9184 29.0779 50.6819 28.1382 50.4763 27.1691C49.155 21.1782 43.8108 16.7144 37.4388 16.7144Z" fill="#4A4AF2"/>
<g clip-path="url(#clip1_3988_16274)">
<path fill-rule="evenodd" clip-rule="evenodd" d="M34.0582 23.0598C34.1534 21.3488 35.1752 20.3097 35.1752 20.3097C35.0367 20.4136 34.905 20.5279 34.7821 20.6508C34.1344 21.2968 33.7586 22.1523 33.7188 23.0598H34.0582ZM41.2954 23.6469C41.1967 24.5716 40.7811 25.4012 40.1576 26.0246C39.4406 26.7416 38.4501 27.1849 37.3556 27.1849C36.261 27.1849 35.2705 26.7416 34.5535 26.0246C33.9266 25.4029 33.5109 24.5716 33.4122 23.6469H33.7395C33.8365 24.4816 34.2158 25.2315 34.7804 25.7943C35.4384 26.4524 36.3476 26.8594 37.3521 26.8594C38.3565 26.8594 39.2657 26.4524 39.9238 25.7943C40.4884 25.2297 40.8677 24.4816 40.9646 23.6469H41.2954ZM37.3538 18.5311C37.624 18.5311 37.8422 18.7493 37.8422 19.0195C37.8422 19.1147 37.8145 19.2048 37.766 19.281C38.696 19.378 39.5307 19.7953 40.1559 20.4205C40.8729 21.1375 41.3162 22.1281 41.3162 23.2226V23.3854H41.3127H40.9872H39.8355H39.5082H35.1977H34.8704H33.7188H33.3932H33.3897V23.2226C33.3897 22.1281 33.8331 21.1375 34.55 20.4205C35.1752 19.7953 36.0099 19.3762 36.9399 19.281C36.8914 19.2048 36.8637 19.1164 36.8637 19.0195C36.8655 18.7493 37.0837 18.5311 37.3538 18.5311ZM39.0597 23.6469C38.9817 23.9621 38.8189 24.2426 38.5973 24.466C38.2786 24.7847 37.8405 24.9804 37.3538 24.9804C36.8689 24.9804 36.429 24.7829 36.1104 24.466C35.8887 24.2443 35.7259 23.9621 35.648 23.6469H35.9857C36.055 23.872 36.1797 24.0729 36.3407 24.2357C36.6005 24.4954 36.9572 24.6548 37.3538 24.6548C37.7504 24.6548 38.1072 24.4937 38.3669 24.2357C38.5297 24.0729 38.6527 23.872 38.7219 23.6469H39.0597ZM39.5168 25.1431C39.4926 25.1691 39.4684 25.1951 39.4424 25.2193C38.9107 25.751 38.1782 26.0783 37.3677 26.0783C36.5572 26.0783 35.8246 25.7493 35.293 25.2193C35.2756 25.202 35.2566 25.183 35.2393 25.1639C34.9968 25.2211 34.7371 25.0999 34.6314 24.8643L34.5362 24.6548L34.5344 24.653L34.2903 24.1127C34.2729 24.0746 34.2903 24.0296 34.3284 24.0123C34.3664 23.995 34.4115 24.0123 34.4288 24.0504L34.5414 24.2998L34.7076 24.6669C34.7249 24.705 34.77 24.7223 34.8081 24.705C34.8288 24.6946 34.8444 24.6773 34.8496 24.6565C34.8375 24.6357 34.8254 24.6167 34.8133 24.5959H34.841L34.8133 24.5335V24.5318L34.5673 23.9863C34.55 23.9482 34.5673 23.9032 34.6054 23.8859C34.6435 23.8685 34.6886 23.8859 34.7059 23.924L34.8185 24.1733L34.9847 24.5405C35.002 24.5786 35.0471 24.5959 35.0852 24.5786C35.1233 24.5613 35.1406 24.5162 35.1233 24.4781L35.0903 24.4054L34.957 24.111L34.8444 23.8616C34.8271 23.8235 34.8444 23.7785 34.8825 23.7612C34.9206 23.7438 34.9657 23.7612 34.983 23.7993L35.0955 24.0486L35.2618 24.4158C35.2791 24.4539 35.3241 24.4712 35.3622 24.4539C35.4003 24.4366 35.4177 24.3915 35.4003 24.3534L35.2341 23.9863L35.1215 23.7369C35.1042 23.6988 35.1215 23.6538 35.1596 23.6365C35.1977 23.6192 35.2427 23.6365 35.2601 23.6746L35.3726 23.924L35.603 24.4296C35.6826 24.6046 35.6584 24.802 35.5579 24.9509L35.5614 24.9544C36.0221 25.415 36.6594 25.7008 37.3642 25.7008C38.0691 25.7008 38.7064 25.415 39.167 24.9544C39.1913 24.9301 39.2155 24.9042 39.2398 24.8782C39.1584 24.6756 39.1826 24.4037 39.3264 24.1577C39.5411 23.7906 39.9377 23.6243 40.2148 23.7854C40.4901 23.9465 40.5403 24.3742 40.3273 24.7414C40.1334 25.0721 39.7853 25.2401 39.5168 25.1431Z" fill="white"/>
</g>
<path d="M39.0245 15.8921C39.0245 15.3635 38.584 14.923 38.0555 14.923H36.8222C36.2937 14.923 35.8532 15.3635 35.8532 15.8921V15.9802H36.323V17.2137H38.5253V15.9802H38.9951V15.8921H39.0245Z" fill="#4A4AF2"/>
<path d="M41.9608 8.02179C41.5791 9.04963 41.168 9.75444 41.5204 10.7823C41.814 11.6927 42.46 13.3666 41.4029 14.1595C41.3736 12.9554 40.5514 12.3681 40.2284 11.1641C39.7585 9.81317 40.6688 8.40356 41.9608 8.02179Z" fill="#4A4AF2"/>
<path d="M33.2985 8.99091C34.6199 9.34331 35.5008 10.7823 35.031 12.1332C34.6786 13.3372 33.8858 13.9246 33.8564 15.1286C32.7993 14.3651 33.4453 12.6618 33.739 11.7514C34.0913 10.7236 33.6802 10.0187 33.2985 8.99091Z" fill="#4A4AF2"/>
<path d="M38.2316 0.474487C37.4388 2.55954 36.9396 4.46839 37.4682 6.64155C37.7912 8.198 38.3197 9.98938 38.0848 11.6633C37.9967 12.2506 37.8205 12.8086 37.4975 13.3078C37.6444 10.9879 36.6166 9.1671 36.1468 6.90585C35.5595 4.55649 36.4404 2.03094 38.2316 0.474487Z" fill="#4A4AF2"/>
</g>
<defs>
<linearGradient id="paint0_linear_3988_16274" x1="41.8351" y1="11.5957" x2="41.8351" y2="193.313" gradientUnits="userSpaceOnUse">
<stop stop-color="#04BF55"/>
<stop offset="1" stop-color="#03873D"/>
</linearGradient>
<clipPath id="clip0_3988_16274">
<rect width="90" height="63.0508" fill="white" transform="translate(0 0.474487)"/>
</clipPath>
<clipPath id="clip1_3988_16274">
<rect width="7.92822" height="8.65558" fill="white" transform="translate(33.3051 18.5253)"/>
</clipPath>
</defs>
</svg>
