<svg fill="none" height="34" viewBox="0 0 34 34" width="34" xmlns="http://www.w3.org/2000/svg">
    <path
        d="M25.4386 12.1161C25.5728 12.3472 25.6428 12.61 25.6414 12.8772C25.6401 13.1445 25.5673 13.4065 25.4307 13.6362L16.2986 29.302C16.1668 29.5262 15.9795 29.7126 15.7548 29.8433C15.5469 29.9628 15.3134 30.0306 15.0739 30.0413C14.8343 30.0519 14.5957 30.0049 14.3781 29.9043C14.1605 29.8037 13.9701 29.6524 13.823 29.4631C13.6759 29.2738 13.5763 29.0519 13.5326 28.8162L12.0055 21.043C11.9903 20.9662 11.9995 20.8865 12.0319 20.8152C12.0643 20.7438 12.1182 20.6844 12.1861 20.6453L18.0245 17.2746C18.1136 17.2233 18.1913 17.1543 18.2527 17.0719C18.3141 16.9894 18.3578 16.8951 18.3812 16.795C18.4046 16.6949 18.4072 16.591 18.3888 16.4899C18.3704 16.3887 18.3314 16.2924 18.2742 16.207C18.163 16.0485 17.9961 15.9378 17.8068 15.8971C17.6175 15.8565 17.4198 15.8888 17.2534 15.9877L11.4418 19.343C11.3741 19.3823 11.2959 19.3993 11.218 19.3919C11.1401 19.3844 11.0666 19.3528 11.0075 19.3015L5.02969 14.0925C4.79924 13.8937 4.63471 13.6295 4.55796 13.335C4.4812 13.0405 4.49585 12.7296 4.59996 12.4436C4.70407 12.1576 4.89272 11.9101 5.14084 11.7338C5.38897 11.5576 5.68484 11.461 5.98916 11.4569L24.1239 11.3672C24.3897 11.3643 24.6516 11.4321 24.8826 11.5637C25.1136 11.6953 25.3055 11.886 25.4386 12.1161Z"
        fill="#F8F8F8" />
</svg>
