<svg width="18" height="16" viewBox="0 0 18 16" fill="none" xmlns="http://www.w3.org/2000/svg">
<path d="M17.9375 8.99996V13.8125C17.9375 14.3595 17.7202 14.8841 17.3334 15.2709C16.9466 15.6577 16.422 15.875 15.875 15.875H14.5C13.953 15.875 13.4284 15.6577 13.0416 15.2709C12.6548 14.8841 12.4375 14.3595 12.4375 13.8125V10.375C12.4375 9.82795 12.6548 9.30335 13.0416 8.91655C13.4284 8.52976 13.953 8.31246 14.5 8.31246H16.5324C16.3673 6.44082 15.5091 4.69834 14.126 3.42656C12.7429 2.15478 10.9347 1.4454 9.05586 1.43746H9C7.11325 1.43737 5.29461 2.14255 3.90113 3.41456C2.50764 4.68657 1.63996 6.43353 1.46844 8.31246H3.5C4.04701 8.31246 4.57161 8.52976 4.95841 8.91655C5.3452 9.30335 5.5625 9.82795 5.5625 10.375V13.8125C5.5625 14.3595 5.3452 14.8841 4.95841 15.2709C4.57161 15.6577 4.04701 15.875 3.5 15.875H2.125C1.57799 15.875 1.05339 15.6577 0.666592 15.2709C0.279799 14.8841 0.0625 14.3595 0.0625 13.8125V8.99996C0.0644275 7.22956 0.591551 5.49953 1.57715 4.02884C2.56275 2.55816 3.96252 1.41294 5.59927 0.738143C7.23603 0.0633459 9.03619 -0.110692 10.7719 0.238058C12.5076 0.586808 14.1008 1.44267 15.3499 2.6973C16.1746 3.526 16.8277 4.50929 17.2717 5.59081C17.7157 6.67233 17.942 7.83084 17.9375 8.99996Z" fill="#3F3F46"/>
</svg>
