<svg fill="none" height="22" viewBox="0 0 22 22" width="22" xmlns="http://www.w3.org/2000/svg">
    <path
        d="M10.3125 3.4375V2.75C10.3125 2.56766 10.3849 2.3928 10.5139 2.26386C10.6428 2.13493 10.8177 2.0625 11 2.0625C11.1823 2.0625 11.3572 2.13493 11.4861 2.26386C11.6151 2.3928 11.6875 2.56766 11.6875 2.75V3.4375C11.6875 3.61984 11.6151 3.7947 11.4861 3.92364C11.3572 4.05257 11.1823 4.125 11 4.125C10.8177 4.125 10.6428 4.05257 10.5139 3.92364C10.3849 3.7947 10.3125 3.61984 10.3125 3.4375ZM16.5 11C16.5 12.0878 16.1774 13.1512 15.5731 14.0556C14.9687 14.9601 14.1098 15.6651 13.1048 16.0813C12.0998 16.4976 10.9939 16.6065 9.927 16.3943C8.86011 16.1821 7.8801 15.6583 7.11091 14.8891C6.34172 14.1199 5.8179 13.1399 5.60568 12.073C5.39346 11.0061 5.50238 9.90024 5.91866 8.89524C6.33494 7.89025 7.03989 7.03126 7.94436 6.42692C8.84883 5.82257 9.9122 5.5 11 5.5C12.4582 5.50159 13.8562 6.08157 14.8873 7.11267C15.9184 8.14378 16.4984 9.5418 16.5 11ZM15.125 11C15.125 10.1842 14.8831 9.38663 14.4298 8.70827C13.9766 8.02992 13.3323 7.50121 12.5786 7.189C11.8248 6.87679 10.9954 6.7951 10.1953 6.95426C9.39508 7.11343 8.66008 7.50629 8.08318 8.08318C7.50629 8.66008 7.11343 9.39508 6.95426 10.1953C6.7951 10.9954 6.87679 11.8248 7.189 12.5786C7.50121 13.3323 8.02992 13.9766 8.70827 14.4298C9.38663 14.8831 10.1842 15.125 11 15.125C12.0937 15.1239 13.1422 14.6889 13.9156 13.9156C14.6889 13.1422 15.1239 12.0937 15.125 11ZM5.01359 5.98641C5.1426 6.11541 5.31756 6.18788 5.5 6.18788C5.68244 6.18788 5.8574 6.11541 5.98641 5.98641C6.11541 5.8574 6.18788 5.68244 6.18788 5.5C6.18788 5.31756 6.11541 5.1426 5.98641 5.01359L5.29891 4.32609C5.1699 4.19709 4.99494 4.12462 4.8125 4.12462C4.63006 4.12462 4.4551 4.19709 4.32609 4.32609C4.19709 4.4551 4.12462 4.63006 4.12462 4.8125C4.12462 4.99494 4.19709 5.1699 4.32609 5.29891L5.01359 5.98641ZM5.01359 16.0136L4.32609 16.7011C4.19709 16.8301 4.12462 17.0051 4.12462 17.1875C4.12462 17.3699 4.19709 17.5449 4.32609 17.6739C4.4551 17.8029 4.63006 17.8754 4.8125 17.8754C4.99494 17.8754 5.1699 17.8029 5.29891 17.6739L5.98641 16.9864C6.05028 16.9225 6.10095 16.8467 6.13552 16.7632C6.17009 16.6798 6.18788 16.5903 6.18788 16.5C6.18788 16.4097 6.17009 16.3202 6.13552 16.2368C6.10095 16.1533 6.05028 16.0775 5.98641 16.0136C5.92253 15.9497 5.8467 15.899 5.76324 15.8645C5.67978 15.8299 5.59033 15.8121 5.5 15.8121C5.40967 15.8121 5.32022 15.8299 5.23676 15.8645C5.1533 15.899 5.07747 15.9497 5.01359 16.0136ZM16.5 6.1875C16.5903 6.18757 16.6798 6.16985 16.7632 6.13534C16.8467 6.10084 16.9225 6.05023 16.9864 5.98641L17.6739 5.29891C17.8029 5.1699 17.8754 4.99494 17.8754 4.8125C17.8754 4.63006 17.8029 4.4551 17.6739 4.32609C17.5449 4.19709 17.3699 4.12462 17.1875 4.12462C17.0051 4.12462 16.8301 4.19709 16.7011 4.32609L16.0136 5.01359C15.9173 5.10974 15.8518 5.23229 15.8252 5.36573C15.7986 5.49916 15.8122 5.63748 15.8643 5.76317C15.9164 5.88886 16.0046 5.99627 16.1178 6.07181C16.2309 6.14734 16.3639 6.18761 16.5 6.1875ZM16.9864 16.0136C16.8574 15.8846 16.6824 15.8121 16.5 15.8121C16.3176 15.8121 16.1426 15.8846 16.0136 16.0136C15.8846 16.1426 15.8121 16.3176 15.8121 16.5C15.8121 16.6824 15.8846 16.8574 16.0136 16.9864L16.7011 17.6739C16.765 17.7378 16.8408 17.7885 16.9243 17.823C17.0077 17.8576 17.0972 17.8754 17.1875 17.8754C17.2778 17.8754 17.3673 17.8576 17.4507 17.823C17.5342 17.7885 17.61 17.7378 17.6739 17.6739C17.7378 17.61 17.7885 17.5342 17.823 17.4507C17.8576 17.3673 17.8754 17.2778 17.8754 17.1875C17.8754 17.0972 17.8576 17.0077 17.823 16.9243C17.7885 16.8408 17.7378 16.765 17.6739 16.7011L16.9864 16.0136ZM3.4375 10.3125H2.75C2.56766 10.3125 2.3928 10.3849 2.26386 10.5139C2.13493 10.6428 2.0625 10.8177 2.0625 11C2.0625 11.1823 2.13493 11.3572 2.26386 11.4861C2.3928 11.6151 2.56766 11.6875 2.75 11.6875H3.4375C3.61984 11.6875 3.7947 11.6151 3.92364 11.4861C4.05257 11.3572 4.125 11.1823 4.125 11C4.125 10.8177 4.05257 10.6428 3.92364 10.5139C3.7947 10.3849 3.61984 10.3125 3.4375 10.3125ZM11 17.875C10.8177 17.875 10.6428 17.9474 10.5139 18.0764C10.3849 18.2053 10.3125 18.3802 10.3125 18.5625V19.25C10.3125 19.4323 10.3849 19.6072 10.5139 19.7361C10.6428 19.8651 10.8177 19.9375 11 19.9375C11.1823 19.9375 11.3572 19.8651 11.4861 19.7361C11.6151 19.6072 11.6875 19.4323 11.6875 19.25V18.5625C11.6875 18.3802 11.6151 18.2053 11.4861 18.0764C11.3572 17.9474 11.1823 17.875 11 17.875ZM19.25 10.3125H18.5625C18.3802 10.3125 18.2053 10.3849 18.0764 10.5139C17.9474 10.6428 17.875 10.8177 17.875 11C17.875 11.1823 17.9474 11.3572 18.0764 11.4861C18.2053 11.6151 18.3802 11.6875 18.5625 11.6875H19.25C19.4323 11.6875 19.6072 11.6151 19.7361 11.4861C19.8651 11.3572 19.9375 11.1823 19.9375 11C19.9375 10.8177 19.8651 10.6428 19.7361 10.5139C19.6072 10.3849 19.4323 10.3125 19.25 10.3125Z"
        fill="#464646" />
</svg>
