<svg fill="none" height="22" viewBox="0 0 22 22" width="22" xmlns="http://www.w3.org/2000/svg">
    <path
        d="M20.5562 8.36069C20.4729 8.10407 20.316 7.87761 20.105 7.70952C19.8939 7.54143 19.6381 7.43913 19.3694 7.41538L14.2655 6.97537L12.2649 2.21788C12.1608 1.96824 11.9851 1.75501 11.76 1.60502C11.5349 1.45503 11.2704 1.375 10.9999 1.375C10.7294 1.375 10.465 1.45503 10.2399 1.60502C10.0148 1.75501 9.83908 1.96824 9.73492 2.21788L7.74031 6.97537L2.63047 7.41795C2.36066 7.44063 2.10354 7.54245 1.89137 7.71067C1.6792 7.87889 1.52141 8.106 1.4378 8.36353C1.35419 8.62106 1.34848 8.89755 1.42138 9.15831C1.49427 9.41908 1.64254 9.65252 1.84758 9.82936L5.72422 13.217L4.56234 18.2478C4.50091 18.5111 4.51844 18.7866 4.61274 19.0399C4.70705 19.2933 4.87395 19.5132 5.09257 19.6723C5.3112 19.8313 5.57185 19.9223 5.84193 19.934C6.11201 19.9457 6.37955 19.8775 6.61109 19.738L10.9939 17.0739L15.3862 19.738C15.6177 19.8775 15.8852 19.9457 16.1553 19.934C16.4254 19.9223 16.6861 19.8313 16.9047 19.6723C17.1233 19.5132 17.2902 19.2933 17.3845 19.0399C17.4788 18.7866 17.4964 18.5111 17.4349 18.2478L16.2739 13.2119L20.1497 9.82936C20.3547 9.65191 20.5027 9.41781 20.575 9.15649C20.6473 8.89517 20.6408 8.6183 20.5562 8.36069ZM19.2482 8.79038L15.3724 12.1729C15.1838 12.337 15.0435 12.5494 14.9665 12.7873C14.8896 13.0251 14.879 13.2795 14.9359 13.523L16.1003 18.5623L11.7115 15.8983C11.4974 15.7679 11.2515 15.6989 11.0008 15.6989C10.7501 15.6989 10.5042 15.7679 10.2901 15.8983L5.90726 18.5623L7.06398 13.5264C7.12083 13.2829 7.11022 13.0286 7.0333 12.7907C6.95638 12.5528 6.81605 12.3404 6.62742 12.1763L2.74992 8.79553C2.74961 8.79296 2.74961 8.79037 2.74992 8.7878L7.85805 8.34608C8.10744 8.3241 8.3461 8.23444 8.54828 8.08678C8.75045 7.93912 8.90848 7.73906 9.00531 7.50819L10.9999 2.7567L12.9937 7.50819C13.0905 7.73906 13.2485 7.93912 13.4507 8.08678C13.6529 8.23444 13.8915 8.3241 14.1409 8.34608L19.2499 8.7878C19.2499 8.7878 19.2499 8.79295 19.2499 8.79381L19.2482 8.79038Z"
        fill="#343330" />
</svg>
