<svg width="18" height="18" viewBox="0 0 18 18" fill="none" xmlns="http://www.w3.org/2000/svg">
<path d="M9 0.0625C7.23233 0.0625 5.50436 0.586675 4.0346 1.56874C2.56483 2.55081 1.41929 3.94665 0.742831 5.57977C0.0663725 7.21288 -0.11062 9.00992 0.234236 10.7436C0.579091 12.4773 1.43031 14.0698 2.68024 15.3198C3.93017 16.5697 5.52268 17.4209 7.25638 17.7658C8.99009 18.1106 10.7871 17.9336 12.4202 17.2572C14.0534 16.5807 15.4492 15.4352 16.4313 13.9654C17.4133 12.4956 17.9375 10.7677 17.9375 9C17.935 6.6304 16.9926 4.35856 15.317 2.683C13.6414 1.00743 11.3696 0.0650023 9 0.0625ZM12.9239 7.42391L8.11141 12.2364C8.04756 12.3003 7.97174 12.351 7.88828 12.3856C7.80481 12.4202 7.71535 12.438 7.625 12.438C7.53466 12.438 7.44519 12.4202 7.36173 12.3856C7.27827 12.351 7.20245 12.3003 7.1386 12.2364L5.0761 10.1739C4.94709 10.0449 4.87462 9.86994 4.87462 9.6875C4.87462 9.50506 4.94709 9.3301 5.0761 9.20109C5.2051 9.07209 5.38007 8.99962 5.5625 8.99962C5.74494 8.99962 5.91991 9.07209 6.04891 9.20109L7.625 10.778L11.9511 6.45109C12.015 6.38722 12.0908 6.33655 12.1743 6.30198C12.2577 6.26741 12.3472 6.24962 12.4375 6.24962C12.5278 6.24962 12.6173 6.26741 12.7007 6.30198C12.7842 6.33655 12.86 6.38722 12.9239 6.45109C12.9878 6.51497 13.0385 6.5908 13.073 6.67426C13.1076 6.75772 13.1254 6.84717 13.1254 6.9375C13.1254 7.02783 13.1076 7.11728 13.073 7.20074C13.0385 7.2842 12.9878 7.36003 12.9239 7.42391Z" fill="#4A4AF2"/>
</svg>
