<svg fill="none" height="52" viewBox="0 0 52 52" width="52" xmlns="http://www.w3.org/2000/svg">
    <path
        d="M34.125 11.375C34.125 10.944 34.2962 10.5307 34.6009 10.226C34.9057 9.92123 35.319 9.75002 35.75 9.75002H39V6.50002C39 6.06905 39.1712 5.65572 39.4759 5.35097C39.7807 5.04623 40.194 4.87502 40.625 4.87502C41.056 4.87502 41.4693 5.04623 41.774 5.35097C42.0788 5.65572 42.25 6.06905 42.25 6.50002V9.75002H45.5C45.931 9.75002 46.3443 9.92123 46.649 10.226C46.9538 10.5307 47.125 10.944 47.125 11.375C47.125 11.806 46.9538 12.2193 46.649 12.5241C46.3443 12.8288 45.931 13 45.5 13H42.25V16.25C42.25 16.681 42.0788 17.0943 41.774 17.3991C41.4693 17.7038 41.056 17.875 40.625 17.875C40.194 17.875 39.7807 17.7038 39.4759 17.3991C39.1712 17.0943 39 16.681 39 16.25V13H35.75C35.319 13 34.9057 12.8288 34.6009 12.5241C34.2962 12.2193 34.125 11.806 34.125 11.375ZM46.8325 22.4819C47.5749 26.8949 46.8956 31.4297 44.8927 35.4315C42.8898 39.4332 39.667 42.6949 35.6895 44.7456C31.712 46.7964 27.1857 47.5299 22.7641 46.8405C18.3425 46.151 14.2544 44.0742 11.0901 40.9099C7.92579 37.7456 5.84897 33.6575 5.15952 29.2359C4.47007 24.8143 5.20366 20.288 7.25437 16.3105C9.30507 12.3331 12.5668 9.11021 16.5686 7.10731C20.5703 5.10442 25.1051 4.42513 29.5181 5.16752C29.9399 5.24212 30.3152 5.48026 30.5624 5.83014C30.8095 6.18002 30.9085 6.61334 30.8379 7.03583C30.7672 7.45833 30.5325 7.83582 30.185 8.0862C29.8374 8.33659 29.405 8.4396 28.9819 8.37284C26.4187 7.94165 23.7924 8.07419 21.2856 8.76122C18.7789 9.44825 16.452 10.6733 14.4668 12.351C12.4816 14.0288 10.8859 16.119 9.79069 18.4762C8.69547 20.8333 8.12705 23.4008 8.12499 26C8.12114 30.3757 9.72937 34.5995 12.6425 37.8646C14.4548 35.2383 17.0032 33.2065 19.9672 32.0247C18.3751 30.7707 17.2133 29.0517 16.6434 27.1068C16.0735 25.1619 16.1239 23.0878 16.7874 21.1729C17.451 19.2579 18.6948 17.5973 20.3459 16.4221C21.997 15.2468 23.9733 14.6152 26 14.6152C28.0267 14.6152 30.003 15.2468 31.6541 16.4221C33.3051 17.5973 34.549 19.2579 35.2125 21.1729C35.8761 23.0878 35.9265 25.1619 35.3566 27.1068C34.7867 29.0517 33.6249 30.7707 32.0328 32.0247C34.9968 33.2065 37.5451 35.2383 39.3575 37.8646C42.2706 34.5995 43.8788 30.3757 43.875 26C43.8751 25.0009 43.7922 24.0035 43.6272 23.0181C43.5898 22.8068 43.5947 22.5901 43.6415 22.3806C43.6884 22.1711 43.7762 21.9729 43.9001 21.7976C44.0239 21.6223 44.1813 21.4732 44.3631 21.3591C44.5449 21.2449 44.7475 21.1679 44.9592 21.1324C45.1709 21.097 45.3876 21.1039 45.5966 21.1527C45.8057 21.2015 46.003 21.2912 46.1772 21.4167C46.3513 21.5421 46.4989 21.7009 46.6114 21.8837C46.7239 22.0665 46.799 22.2699 46.8325 22.4819ZM26 30.875C27.2856 30.875 28.5423 30.4938 29.6112 29.7796C30.6801 29.0653 31.5132 28.0502 32.0052 26.8625C32.4972 25.6747 32.6259 24.3678 32.3751 23.1069C32.1243 21.8461 31.5052 20.6879 30.5962 19.7788C29.6871 18.8698 28.529 18.2507 27.2681 17.9999C26.0072 17.7491 24.7003 17.8778 23.5126 18.3698C22.3248 18.8618 21.3097 19.6949 20.5954 20.7638C19.8812 21.8327 19.5 23.0894 19.5 24.375C19.5 26.0989 20.1848 27.7522 21.4038 28.9712C22.6228 30.1902 24.2761 30.875 26 30.875ZM26 43.875C29.9678 43.879 33.823 42.5563 36.9525 40.1172C35.7769 38.2787 34.1575 36.7657 32.2434 35.7176C30.3293 34.6696 28.1822 34.1203 26 34.1203C23.8178 34.1203 21.6707 34.6696 19.7566 35.7176C17.8425 36.7657 16.223 38.2787 15.0475 40.1172C18.177 42.5563 22.0322 43.879 26 43.875Z"
        fill="#464646" />
</svg>
