<svg fill="none" height="22" viewBox="0 0 22 22" width="22" xmlns="http://www.w3.org/2000/svg">
    <path
        d="M14.4376 4.81251C14.4376 4.63017 14.51 4.45531 14.6389 4.32637C14.7678 4.19744 14.9427 4.12501 15.1251 4.12501H19.2501C19.4324 4.12501 19.6073 4.19744 19.7362 4.32637C19.8651 4.45531 19.9376 4.63017 19.9376 4.81251C19.9376 4.99485 19.8651 5.16971 19.7362 5.29865C19.6073 5.42758 19.4324 5.50001 19.2501 5.50001H15.1251C14.9427 5.50001 14.7678 5.42758 14.6389 5.29865C14.51 5.16971 14.4376 4.99485 14.4376 4.81251ZM19.8138 9.51157C20.1279 11.3786 19.8405 13.2972 18.9931 14.9902C18.1457 16.6833 16.7822 18.0632 15.0994 18.9309C13.4167 19.7985 11.5017 20.1088 9.63102 19.8171C7.76034 19.5254 6.03077 18.6468 4.69202 17.308C3.35327 15.9693 2.47462 14.2397 2.18293 12.369C1.89124 10.4984 2.2016 8.5834 3.06921 6.90062C3.93682 5.21783 5.31677 3.85432 7.00983 3.00694C8.70289 2.15956 10.6214 1.87217 12.4885 2.18626C12.667 2.21782 12.8257 2.31857 12.9303 2.4666C13.0349 2.61462 13.0767 2.79795 13.0468 2.9767C13.0169 3.15545 12.9177 3.31516 12.7706 3.42109C12.6236 3.52702 12.4406 3.5706 12.2616 3.54235C11.1772 3.35993 10.0661 3.416 9.00551 3.70667C7.94497 3.99734 6.9605 4.51562 6.12063 5.22544C5.28075 5.93526 4.60564 6.81957 4.14227 7.81684C3.67891 8.8141 3.43842 9.90036 3.43755 11C3.43592 12.8513 4.11633 14.6383 5.3488 16.0196C6.11556 14.9085 7.19373 14.0489 8.44771 13.5489C7.77412 13.0184 7.28259 12.2911 7.04149 11.4683C6.80039 10.6454 6.82169 9.76792 7.10243 8.95774C7.38318 8.14757 7.90941 7.44502 8.60795 6.94779C9.30649 6.45056 10.1426 6.18337 11.0001 6.18337C11.8575 6.18337 12.6936 6.45056 13.3922 6.94779C14.0907 7.44502 14.6169 8.14757 14.8977 8.95774C15.1784 9.76792 15.1997 10.6454 14.9586 11.4683C14.7175 12.2911 14.226 13.0184 13.5524 13.5489C14.8064 14.0489 15.8845 14.9085 16.6513 16.0196C17.8838 14.6383 18.5642 12.8513 18.5626 11C18.5626 10.5773 18.5275 10.1553 18.4577 9.73845C18.4419 9.64901 18.444 9.55734 18.4638 9.4687C18.4836 9.38007 18.5208 9.29625 18.5732 9.22207C18.6256 9.14789 18.6921 9.08482 18.7691 9.03652C18.846 8.98822 18.9317 8.95563 19.0213 8.94065C19.1108 8.92566 19.2025 8.92857 19.2909 8.94921C19.3794 8.96985 19.4629 9.00781 19.5366 9.06089C19.6102 9.11398 19.6727 9.18114 19.7203 9.25849C19.7679 9.33585 19.7996 9.42186 19.8138 9.51157ZM11.0001 13.0625C11.544 13.0625 12.0756 12.9012 12.5279 12.5991C12.9801 12.2969 13.3326 11.8674 13.5407 11.3649C13.7489 10.8624 13.8033 10.3095 13.6972 9.77601C13.5911 9.24256 13.3292 8.75256 12.9446 8.36797C12.56 7.98337 12.07 7.72146 11.5366 7.61535C11.0031 7.50924 10.4502 7.5637 9.94767 7.77184C9.44518 7.97998 9.01569 8.33246 8.71351 8.78469C8.41134 9.23693 8.25005 9.76861 8.25005 10.3125C8.25005 11.0419 8.53978 11.7413 9.05551 12.2571C9.57123 12.7728 10.2707 13.0625 11.0001 13.0625ZM11.0001 18.5625C12.6787 18.5642 14.3098 18.0046 15.6338 16.9727C15.1365 16.1948 14.4513 15.5547 13.6415 15.1113C12.8317 14.6679 11.9233 14.4355 11.0001 14.4355C10.0768 14.4355 9.16841 14.6679 8.35861 15.1113C7.54881 15.5547 6.86365 16.1948 6.3663 16.9727C7.69034 18.0046 9.32138 18.5642 11.0001 18.5625Z"
        fill="#FF3C26" />
</svg>
