<svg width="24" height="24" viewBox="0 0 24 24" fill="none" xmlns="http://www.w3.org/2000/svg">
<path d="M23.25 14.875V22.375C23.25 22.6236 23.1512 22.8621 22.9754 23.0379C22.7996 23.2137 22.5611 23.3125 22.3125 23.3125H1.6875C1.43886 23.3125 1.2004 23.2137 1.02459 23.0379C0.848772 22.8621 0.75 22.6236 0.75 22.375V14.875C0.75 14.6264 0.848772 14.3879 1.02459 14.2121C1.2004 14.0363 1.43886 13.9375 1.6875 13.9375C1.93614 13.9375 2.1746 14.0363 2.35041 14.2121C2.52623 14.3879 2.625 14.6264 2.625 14.875V21.4375H21.375V14.875C21.375 14.6264 21.4738 14.3879 21.6496 14.2121C21.8254 14.0363 22.0639 13.9375 22.3125 13.9375C22.5611 13.9375 22.7996 14.0363 22.9754 14.2121C23.1512 14.3879 23.25 14.6264 23.25 14.875ZM7.97578 7.10079L11.0625 4.0129V14.875C11.0625 15.1236 11.1613 15.3621 11.3371 15.5379C11.5129 15.7137 11.7514 15.8125 12 15.8125C12.2486 15.8125 12.4871 15.7137 12.6629 15.5379C12.8387 15.3621 12.9375 15.1236 12.9375 14.875V4.0129L16.0242 7.10079C16.2001 7.2767 16.4387 7.37553 16.6875 7.37553C16.9363 7.37553 17.1749 7.2767 17.3508 7.10079C17.5267 6.92487 17.6255 6.68628 17.6255 6.43751C17.6255 6.18873 17.5267 5.95014 17.3508 5.77422L12.6633 1.08672C12.5762 0.999558 12.4728 0.930409 12.359 0.88323C12.2452 0.836051 12.1232 0.811768 12 0.811768C11.8768 0.811768 11.7548 0.836051 11.641 0.88323C11.5272 0.930409 11.4238 0.999558 11.3367 1.08672L6.64922 5.77422C6.47331 5.95014 6.37448 6.18873 6.37448 6.43751C6.37448 6.68628 6.47331 6.92487 6.64922 7.10079C6.82513 7.2767 7.06372 7.37553 7.3125 7.37553C7.56128 7.37553 7.79987 7.2767 7.97578 7.10079Z" fill="#04BF55"/>
</svg>
