<svg width="22" height="22" viewBox="0 0 22 22" fill="none" xmlns="http://www.w3.org/2000/svg">
<path d="M18.5625 5.5H4.8125C4.63016 5.5 4.4553 5.42757 4.32636 5.29864C4.19743 5.1697 4.125 4.99484 4.125 4.8125C4.125 4.63016 4.19743 4.4553 4.32636 4.32636C4.4553 4.19743 4.63016 4.125 4.8125 4.125H16.5C16.6823 4.125 16.8572 4.05257 16.9861 3.92364C17.1151 3.7947 17.1875 3.61984 17.1875 3.4375C17.1875 3.25516 17.1151 3.0803 16.9861 2.95136C16.8572 2.82243 16.6823 2.75 16.5 2.75H4.8125C4.26549 2.75 3.74089 2.9673 3.35409 3.35409C2.9673 3.74089 2.75 4.26549 2.75 4.8125V15.8125C2.75 16.3595 2.9673 16.8841 3.35409 17.2709C3.74089 17.6577 4.26549 17.875 4.8125 17.875H18.5625C18.9272 17.875 19.2769 17.7301 19.5348 17.4723C19.7926 17.2144 19.9375 16.8647 19.9375 16.5V6.875C19.9375 6.51033 19.7926 6.16059 19.5348 5.90273C19.2769 5.64487 18.9272 5.5 18.5625 5.5ZM15.4688 12.375C15.2648 12.375 15.0654 12.3145 14.8958 12.2012C14.7262 12.0879 14.5941 11.9268 14.516 11.7384C14.4379 11.55 14.4175 11.3426 14.4573 11.1426C14.4971 10.9425 14.5953 10.7588 14.7395 10.6145C14.8838 10.4703 15.0675 10.3721 15.2676 10.3323C15.4676 10.2925 15.675 10.3129 15.8634 10.391C16.0518 10.4691 16.2129 10.6012 16.3262 10.7708C16.4395 10.9404 16.5 11.1398 16.5 11.3438C16.5 11.6173 16.3913 11.8796 16.198 12.073C16.0046 12.2663 15.7423 12.375 15.4688 12.375Z" fill="#3F3F46"/>
</svg>
