<svg fill="none" height="22" viewBox="0 0 22 22" width="22" xmlns="http://www.w3.org/2000/svg">
    <path
        d="M17.6738 16.7011C17.7377 16.765 17.7883 16.8408 17.8229 16.9243C17.8575 17.0077 17.8753 17.0972 17.8753 17.1875C17.8753 17.2779 17.8575 17.3673 17.8229 17.4508C17.7883 17.5342 17.7377 17.61 17.6738 17.6739C17.6099 17.7378 17.5341 17.7885 17.4506 17.823C17.3672 17.8576 17.2777 17.8754 17.1874 17.8754C17.0971 17.8754 17.0076 17.8576 16.9242 17.823C16.8407 17.7885 16.7649 17.7378 16.701 17.6739L10.9999 11.972L5.2988 17.6739C5.1698 17.8029 4.99483 17.8754 4.81239 17.8754C4.62996 17.8754 4.45499 17.8029 4.32599 17.6739C4.19698 17.5449 4.12451 17.37 4.12451 17.1875C4.12451 17.0051 4.19698 16.8301 4.32599 16.7011L10.0279 11L4.32599 5.29892C4.19698 5.16992 4.12451 4.99495 4.12451 4.81252C4.12451 4.63008 4.19698 4.45511 4.32599 4.32611C4.45499 4.19711 4.62996 4.12463 4.81239 4.12463C4.99483 4.12463 5.1698 4.19711 5.2988 4.32611L10.9999 10.0281L16.701 4.32611C16.83 4.19711 17.005 4.12463 17.1874 4.12463C17.3698 4.12463 17.5448 4.19711 17.6738 4.32611C17.8028 4.45511 17.8753 4.63008 17.8753 4.81252C17.8753 4.99495 17.8028 5.16992 17.6738 5.29892L11.9718 11L17.6738 16.7011Z"
        fill="#DCDCDC" />
</svg>
