<svg fill="none" height="282" viewBox="0 0 282 282" width="282" xmlns="http://www.w3.org/2000/svg">
    <g clip-path="url(#clip0_725_20953)">
        <path
            d="M41.2945 143.093C-13.7701 174.872 -13.7701 226.39 41.2945 258.17C96.3591 289.95 185.633 289.95 240.698 258.17C295.762 226.39 295.762 174.872 240.698 143.093C185.633 111.313 96.3591 111.313 41.2945 143.093Z"
            fill="#F5F5F5" />
        <path
            d="M29.812 113.976C29.7996 113.982 29.7934 113.988 29.781 113.988C28.951 114.397 28.0653 114.743 27.1486 115.016C26.2319 115.288 25.3028 115.486 24.3799 115.604C23.9401 115.66 23.5313 115.387 23.4012 114.96L22.7199 112.688C21.4191 112.731 20.137 112.608 18.892 112.304L17.7709 114.378C17.5603 114.768 17.1019 114.948 16.6869 114.805C14.8969 114.199 13.2245 113.295 11.7255 112.131C11.3787 111.865 11.2796 111.375 11.484 110.985L12.6113 108.899C11.6698 108.02 10.8522 107.023 10.1832 105.921L7.91623 106.596C7.48885 106.726 7.03669 106.528 6.84467 106.131C6.42968 105.283 6.07662 104.398 5.81028 103.494C5.54394 102.59 5.34573 101.661 5.22804 100.726C5.1723 100.287 5.43864 99.8782 5.87222 99.7544L8.13302 99.0796C8.08967 97.798 8.21974 96.5102 8.52944 95.2534L6.44826 94.1327C6.06423 93.9222 5.87841 93.4579 6.02087 93.0431C6.64027 91.2476 7.5384 89.576 8.70287 88.0839C8.97541 87.7372 9.45854 87.6381 9.84876 87.8486L11.9237 88.9692C12.8033 88.022 13.8067 87.2047 14.9093 86.5423L14.2279 84.2762C14.0978 83.849 14.2899 83.3909 14.6925 83.2052C15.5225 82.7965 16.4082 82.4498 17.3249 82.1774C18.2416 81.905 19.1707 81.7069 20.0936 81.5892C20.5334 81.5335 20.9422 81.8059 21.0723 82.2331L21.7474 84.4991C23.0296 84.4496 24.3179 84.5796 25.5753 84.8892L26.6964 82.8151C26.907 82.4312 27.3716 82.2455 27.7804 82.3879C29.5704 82.9947 31.2428 83.8986 32.7418 85.0625C33.0886 85.3288 33.1877 85.8241 32.9833 86.2079L31.856 88.2882C32.8037 89.1735 33.6151 90.1703 34.2841 91.2724L36.5511 90.5975C36.9784 90.4675 37.4306 90.6656 37.6226 91.0619C38.0314 91.8915 38.3721 92.7769 38.6508 93.6932C38.9172 94.5847 39.1154 95.5196 39.2392 96.4607C39.295 96.9003 39.0286 97.3089 38.6013 97.4389L36.3405 98.1137C36.3838 99.4015 36.2537 100.683 35.944 101.934L38.019 103.054C38.4093 103.265 38.5951 103.723 38.4464 104.138C37.8332 105.94 36.9351 107.611 35.7706 109.103C35.4981 109.45 35.0149 109.549 34.6247 109.339L32.5497 108.218C31.6764 109.153 30.673 109.97 29.5642 110.639L30.2456 112.911C30.3695 113.332 30.1898 113.771 29.812 113.976ZM18.477 111.431C18.5699 111.382 18.6814 111.363 18.7929 111.394C20.1556 111.759 21.5802 111.908 23.0172 111.821C23.2154 111.809 23.395 111.939 23.4508 112.125L24.225 114.713C25.1417 114.638 26.0275 114.453 26.9008 114.192C27.7742 113.932 28.6166 113.604 29.4032 113.22L28.6475 110.577C28.5918 110.385 28.6723 110.181 28.8457 110.081C30.0907 109.363 31.1994 108.466 32.1409 107.407C32.271 107.258 32.4878 107.221 32.6674 107.314L35.0397 108.596C36.2042 107.172 37.059 105.58 37.6412 103.872L35.2441 102.534C35.0707 102.441 34.984 102.237 35.0335 102.045C35.4052 100.671 35.5538 99.2529 35.4671 97.8289C35.4547 97.6308 35.5848 97.4513 35.7706 97.3956L38.3535 96.6216C38.3721 96.6155 38.3907 96.5907 38.3907 96.5721C38.273 95.6744 38.0872 94.789 37.8332 93.9408C37.5731 93.0679 37.2448 92.2258 36.8608 91.4396L34.2221 92.1949C34.0301 92.2506 33.8257 92.1701 33.7266 91.9968C33.0143 90.7647 32.1162 89.6565 31.0446 88.703C30.8959 88.573 30.8588 88.3563 30.9517 88.1767L32.24 85.8055C30.803 84.6415 29.2174 83.7871 27.514 83.2052L26.1761 85.6012C26.0832 85.7745 25.8788 85.8612 25.6868 85.8117C24.3055 85.4402 22.8809 85.2916 21.4687 85.3845C21.2705 85.3969 21.0847 85.273 21.0289 85.0811L20.2547 82.4932C19.338 82.5675 18.4522 82.7532 17.5789 83.0132C16.7055 83.2733 15.8631 83.6014 15.0765 83.9853L15.8322 86.6289C15.8879 86.8209 15.8074 87.0252 15.6339 87.1242C14.4013 87.8238 13.2926 88.7278 12.3387 89.7989C12.2025 89.9474 11.9919 89.9846 11.8123 89.8917L9.43996 88.6101C8.27549 90.0341 7.42072 91.6191 6.83229 93.3279L9.23556 94.659C9.40899 94.7519 9.4957 94.9562 9.44615 95.1481C9.07451 96.535 8.92586 97.9528 9.01257 99.3706C9.02496 99.5687 8.89489 99.7482 8.70907 99.804L6.12617 100.578C6.2005 101.513 6.38632 102.398 6.64027 103.252C6.89423 104.107 7.2287 104.955 7.62512 105.76L10.2638 105.005C10.4558 104.949 10.6602 105.029 10.7593 105.203C11.4716 106.435 12.3697 107.543 13.4413 108.484C13.5899 108.614 13.6271 108.831 13.5342 109.01L12.252 111.388C13.689 112.552 15.2747 113.406 16.978 113.988L18.3098 111.592C18.3469 111.53 18.4089 111.468 18.477 111.431ZM26.2381 105.828C23.7357 107.165 20.8059 107.209 18.3221 105.865C15.4419 104.311 13.7758 101.234 13.9863 97.8413C14.1226 95.6001 15.2809 93.4641 17.0771 92.1206C19.8025 90.0837 23.2835 89.7803 26.1637 91.3343C29.0501 92.8883 30.7101 95.9654 30.4995 99.3582C30.3633 101.599 29.205 103.735 27.4087 105.079C27.0247 105.364 26.6345 105.611 26.2381 105.828ZM18.638 92.133C18.2726 92.3249 17.9195 92.554 17.5789 92.8078C15.9808 94.0027 14.9526 95.9035 14.8349 97.897C14.6491 100.956 16.1357 103.717 18.7186 105.11C21.3076 106.503 24.4356 106.23 26.8822 104.392C28.4803 103.197 29.5085 101.296 29.6262 99.3025C29.812 96.244 28.3254 93.4827 25.7363 92.0896C23.5251 90.8947 20.8926 90.9319 18.638 92.133Z"
            fill="#F0F0F0" />
        <path
            d="M59.8896 57.9072C58.6198 58.8607 57.8022 60.3714 57.7031 61.9501C57.5544 64.3462 58.7313 66.5193 60.7691 67.6151C62.2743 68.4262 64.0457 68.5253 65.65 67.9123C65.8916 67.8195 66.1269 67.7142 66.3623 67.5904C66.6472 67.4356 66.9259 67.2622 67.1861 67.0641C68.4559 66.1169 69.2735 64.6 69.3726 63.0212C69.5212 60.6252 68.3444 58.4521 66.3066 57.3562C64.2687 56.2542 61.8097 56.4709 59.8896 57.9072ZM68.6541 62.9779C68.5674 64.3523 67.8612 65.6649 66.7587 66.4883C65.0616 67.7575 62.8999 67.9495 61.1098 66.9836C59.3197 66.0178 58.2915 64.1047 58.4216 61.9935C58.5083 60.619 59.2144 59.3065 60.317 58.483C60.5523 58.3097 60.8001 58.1487 61.0478 58.0187C61.2523 57.9072 61.4628 57.8144 61.6796 57.7339C63.0919 57.1952 64.6466 57.2819 65.9659 57.9939C67.7498 58.9536 68.7841 60.8667 68.6541 62.9779ZM74.3525 57.189C74.2039 56.8857 73.857 56.7371 73.5287 56.8361L71.9926 57.2943C71.5343 56.5513 70.983 55.8703 70.3388 55.2698L71.1069 53.8581C71.2679 53.561 71.1874 53.1833 70.9211 52.979C69.8619 52.1617 68.6912 51.5302 67.4339 51.103C67.118 50.9978 66.7587 51.134 66.6039 51.4312L65.842 52.8428C64.9872 52.6385 64.1139 52.5518 63.2405 52.5765L62.7822 51.0349C62.6831 50.7068 62.3672 50.5025 62.0327 50.5458C61.3885 50.6263 60.732 50.7687 60.0878 50.9606C59.4436 51.1526 58.818 51.394 58.2358 51.6788C57.9323 51.815 57.7774 52.1679 57.8765 52.5023L58.3411 54.0439C57.5978 54.4958 56.9103 55.0531 56.3095 55.6908L54.8972 54.9292C54.5999 54.7683 54.2283 54.8426 54.0177 55.1088C53.2001 56.1551 52.5683 57.3314 52.1347 58.5945C52.0232 58.9102 52.1657 59.2693 52.463 59.4303L53.8814 60.1918C53.677 61.0462 53.5903 61.9192 53.6151 62.7921L52.079 63.2503C51.7569 63.3432 51.5463 63.6589 51.5896 63.9994C51.6702 64.6557 51.8064 65.312 51.9984 65.9435C52.1904 66.575 52.432 67.2003 52.7293 67.8009C52.878 68.1043 53.2248 68.2528 53.5531 68.1538L55.0892 67.6956C55.5476 68.4386 56.0989 69.1196 56.7368 69.7202L55.975 71.138C55.8139 71.4352 55.8945 71.8128 56.1608 72.0171C57.2138 72.8344 58.3906 73.4659 59.648 73.8931C59.9701 74.0045 60.317 73.8621 60.478 73.565L61.2399 72.1534C62.0822 72.3577 62.9618 72.4443 63.8413 72.4134L64.3059 73.955C64.405 74.2831 64.7209 74.4875 65.0554 74.4441C65.6995 74.3636 66.3561 74.2212 67.0003 74.0293C67.2914 73.9426 67.5825 73.8436 67.8612 73.7383C68.2019 73.6083 68.5364 73.4659 68.8585 73.3049L68.8709 73.2987C69.1558 73.144 69.2982 72.8034 69.2053 72.4877L68.7408 70.946C69.4903 70.4879 70.1716 69.9307 70.7724 69.2992L72.1846 70.0607C72.4882 70.2217 72.8536 70.1474 73.0642 69.8812C73.8818 68.8286 74.5136 67.6585 74.941 66.3893C75.0525 66.0673 74.91 65.7206 74.6127 65.5596L73.2005 64.7981C73.4049 63.9499 73.4916 63.0769 73.4668 62.204L75.0029 61.7458C75.325 61.653 75.5356 61.331 75.4922 60.9967C75.4055 60.3342 75.2693 59.6779 75.0772 59.0526C74.879 58.3902 74.6375 57.771 74.3525 57.189ZM74.3835 59.2446C74.5569 59.8265 74.687 60.4333 74.7675 61.0524L72.9837 61.5849C72.8164 61.6344 72.7173 61.783 72.7297 61.9501C72.7855 62.9407 72.6864 63.9252 72.4262 64.8786C72.3829 65.0396 72.4572 65.2067 72.5996 65.2872L74.2349 66.1973C73.8261 67.3799 73.2376 68.451 72.4758 69.392L70.8591 68.5191C70.7105 68.4386 70.5309 68.4695 70.4194 68.5996C69.769 69.3363 68.9947 69.9616 68.1276 70.4569C67.9851 70.5436 67.917 70.7108 67.9603 70.8718L68.4744 72.6734C67.9356 72.9334 67.3657 73.1563 66.7773 73.3297C66.1393 73.5216 65.5447 73.6393 64.9686 73.6888L64.4422 71.9243C64.3926 71.7633 64.2439 71.658 64.0767 71.6704C63.0795 71.7323 62.0946 71.6271 61.1408 71.3732C61.054 71.3485 60.9549 71.3609 60.8744 71.4042C60.8125 71.4352 60.7629 71.4909 60.7258 71.5528L59.8152 73.1873C58.6384 72.7787 57.5668 72.1905 56.6192 71.429L57.4925 69.8069C57.573 69.6583 57.5421 69.4787 57.412 69.3673C56.6687 68.711 56.0431 67.9433 55.5476 67.0827C55.4609 66.9341 55.2936 66.8722 55.1326 66.9155L53.3363 67.4294C53.07 66.8846 52.847 66.315 52.6736 65.733C52.4878 65.1077 52.3701 64.5133 52.3205 63.9252L54.0796 63.3989C54.0858 63.3989 54.0982 63.3927 54.1044 63.3865C54.2468 63.3308 54.3398 63.1884 54.3336 63.0274C54.2778 62.043 54.3769 61.0524 54.6371 60.0928C54.6804 59.9318 54.6061 59.7646 54.4636 59.6841L52.8284 58.774C53.2372 57.5977 53.8319 56.5204 54.5937 55.5793L56.2103 56.4523C56.359 56.5328 56.5386 56.5018 56.6501 56.378C57.3129 55.635 58.0809 55.0097 58.9357 54.5206C59.0844 54.4401 59.1525 54.2668 59.1029 54.1058L58.5888 52.3041C59.1215 52.0441 59.6914 51.8274 60.286 51.6479C60.924 51.4559 61.5186 51.3383 62.0946 51.2888L62.6211 53.0533C62.6707 53.2143 62.8193 53.3195 62.9928 53.3071C63.9776 53.2452 64.9625 53.3443 65.9225 53.6043C66.0836 53.6476 66.2508 53.5733 66.3313 53.4309L67.2418 51.7965C68.4187 52.2051 69.4903 52.7932 70.4379 53.5548L69.5646 55.1707C69.4841 55.3193 69.515 55.4988 69.6389 55.6103C70.3822 56.2727 71.0078 57.0405 71.5033 57.8949C71.59 58.0373 71.7573 58.1054 71.9183 58.062L73.7146 57.5481C73.9871 58.0806 74.2039 58.6502 74.3835 59.2446Z"
            fill="#F0F0F0" />
        <path
            d="M21.7157 24.7529C20.446 25.7064 19.6284 27.2171 19.5293 28.7958C19.3806 31.1919 20.5575 33.365 22.5953 34.4608C24.1004 35.2719 25.8719 35.371 27.4762 34.758C27.7177 34.6652 27.9531 34.5599 28.1885 34.4361C28.4734 34.2813 28.7521 34.1079 29.0123 33.9098C30.282 32.9626 31.0996 31.4457 31.1987 29.8669C31.3474 27.4709 30.1705 25.2978 28.1327 24.2019C26.1011 23.0999 23.6421 23.3166 21.7157 24.7529ZM30.4802 29.8236C30.3935 31.198 29.6874 32.5106 28.5849 33.334C26.8877 34.6032 24.726 34.7952 22.936 33.8293C21.1459 32.8635 20.1177 30.9504 20.2478 28.8392C20.3345 27.4647 21.0406 26.1522 22.1431 25.3287C22.3785 25.1554 22.6263 24.9944 22.874 24.8644C23.0784 24.7529 23.289 24.6601 23.5058 24.5796C24.918 24.0409 26.4727 24.1276 27.7921 24.8396C29.5821 25.7993 30.6103 27.7124 30.4802 29.8236ZM36.1787 24.0347C36.0301 23.7314 35.6832 23.5828 35.3549 23.6818L33.8188 24.14C33.3605 23.397 32.8092 22.716 32.165 22.1155L32.9331 20.7038C33.0941 20.4067 33.0136 20.029 32.7472 19.8247C31.6881 19.0074 30.5174 18.3759 29.26 17.9487C28.9441 17.8435 28.5849 17.9797 28.43 18.2769L27.6682 19.6885C26.8134 19.4842 25.9401 19.3975 25.0667 19.4223L24.6083 17.8806C24.5092 17.5525 24.1933 17.3482 23.8589 17.3915C23.2147 17.472 22.5581 17.6144 21.914 17.8063C21.2698 17.9983 20.6442 18.2397 20.062 18.5245C19.7584 18.6607 19.6036 19.0136 19.7027 19.348L20.1673 20.8896C19.424 21.3415 18.7364 21.8988 18.1356 22.5365L16.7234 21.7749C16.4261 21.614 16.0544 21.6883 15.8438 21.9545C15.0262 23.0008 14.3945 24.1771 13.9609 25.4402C13.8494 25.7559 13.9918 26.115 14.2892 26.276L15.7076 27.0375C15.5032 27.8919 15.4165 28.7649 15.4412 29.6378L13.9051 30.096C13.583 30.1889 13.3724 30.5046 13.4158 30.8451C13.4963 31.5014 13.6326 32.1577 13.8246 32.7892C14.0166 33.4207 14.2582 34.046 14.5555 34.6466C14.7042 34.95 15.051 35.0985 15.3793 34.9995L16.9154 34.5413C17.3738 35.2843 17.925 35.9653 18.563 36.5659L17.8011 37.9837C17.6401 38.2809 17.7206 38.6585 17.987 38.8628C19.0399 39.6801 20.2168 40.3116 21.4742 40.7388C21.7963 40.8502 22.1431 40.7078 22.3042 40.4107L23.066 38.9991C23.9084 39.2034 24.788 39.29 25.6675 39.2591L26.1321 40.8007C26.2312 41.1288 26.5471 41.3332 26.8815 41.2898C27.5257 41.2093 28.1823 41.0669 28.8264 40.875C29.1176 40.7883 29.4087 40.6893 29.6874 40.584C30.0281 40.454 30.3626 40.3116 30.6846 40.1506L30.697 40.1444C30.982 39.9897 31.1244 39.6491 31.0315 39.3334L30.567 37.7918C31.3164 37.3336 31.9978 36.7764 32.5986 36.1449L34.0108 36.9064C34.3143 37.0674 34.6798 36.9931 34.8904 36.7269C35.708 35.6743 36.3398 34.5042 36.7671 33.235C36.8786 32.913 36.7362 32.5663 36.4389 32.4053L35.0266 31.6438C35.231 30.7956 35.3178 29.9226 35.293 29.0497L36.8291 28.5915C37.1512 28.4987 37.3618 28.1767 37.3184 27.8424C37.2317 27.1799 37.0954 26.5236 36.9034 25.8983C36.7114 25.2359 36.4698 24.6167 36.1787 24.0347ZM36.2097 26.0903C36.3831 26.6722 36.5132 27.279 36.5937 27.8981L34.8098 28.4306C34.6426 28.4801 34.5435 28.6287 34.5559 28.7958C34.6116 29.7864 34.5125 30.7709 34.2524 31.7243C34.209 31.8853 34.2834 32.0524 34.4258 32.1329L36.061 33.043C35.6522 34.2256 35.0638 35.2967 34.3019 36.2377L32.6853 35.3648C32.5366 35.2843 32.357 35.3152 32.2455 35.4453C31.5952 36.182 30.8209 36.8073 29.9538 37.3026C29.8113 37.3831 29.7432 37.5565 29.7865 37.7175L30.3006 39.5191C29.7617 39.7792 29.1919 39.9958 28.6035 40.1754C27.9655 40.3673 27.3709 40.485 26.7948 40.5345L26.2683 38.77C26.2188 38.609 26.0701 38.5037 25.9029 38.5161C24.9057 38.578 23.9208 38.4728 22.9669 38.219C22.8802 38.1942 22.7811 38.2066 22.7006 38.2499C22.6387 38.2809 22.5891 38.3366 22.5519 38.3985L21.6414 40.033C20.4646 39.6244 19.393 39.0362 18.4453 38.2747L19.3187 36.6526C19.3992 36.504 19.3682 36.3244 19.2382 36.213C18.4949 35.5567 17.8693 34.789 17.3738 33.9284C17.287 33.7798 17.1198 33.7179 16.9588 33.7612L15.1625 34.2751C14.8962 33.7303 14.6732 33.1607 14.4997 32.5787C14.3139 31.9534 14.1962 31.359 14.1467 30.7709L15.9058 30.2446C15.912 30.2446 15.9244 30.2384 15.9306 30.2322C16.073 30.1765 16.1659 30.0341 16.1597 29.8731C16.104 28.8887 16.2031 27.8981 16.4632 26.9385C16.5066 26.7775 16.4323 26.6103 16.2898 26.5298L14.6546 25.6197C15.0634 24.4434 15.658 23.3661 16.4199 22.425L18.0365 23.298C18.1852 23.3785 18.3648 23.3475 18.4763 23.2237C19.139 22.4807 19.9071 21.8554 20.7619 21.3663C20.9105 21.2858 20.9787 21.1125 20.9291 20.9515L20.415 19.1498C20.9477 18.8898 21.5175 18.6731 22.1122 18.4936C22.7501 18.3016 23.3448 18.184 23.9208 18.1345L24.4473 19.899C24.4969 20.06 24.6455 20.1652 24.8189 20.1528C25.8038 20.0909 26.7886 20.19 27.7487 20.45C27.9097 20.4933 28.077 20.419 28.1575 20.2766L29.068 18.6422C30.2449 19.0508 31.3164 19.6389 32.2641 20.4005L31.3908 22.0164C31.3102 22.165 31.3412 22.3445 31.4651 22.456C32.2084 23.1184 32.834 23.8862 33.3295 24.7406C33.4162 24.883 33.5834 24.9511 33.7445 24.9077L35.5407 24.3938C35.8133 24.9263 36.0363 25.4959 36.2097 26.0903Z"
            fill="#F0F0F0" />
        <path
            d="M247.612 109.183L248.293 106.911C247.185 106.236 246.181 105.425 245.308 104.49L243.233 105.611C242.843 105.821 242.359 105.722 242.087 105.375C240.929 103.883 240.024 102.212 239.411 100.41C239.269 99.9952 239.448 99.537 239.838 99.3265L241.913 98.2059C241.61 96.9552 241.474 95.6737 241.517 94.3859L239.256 93.711C238.823 93.581 238.556 93.1724 238.618 92.7328C238.742 91.7917 238.94 90.8568 239.207 89.9653C239.485 89.049 239.826 88.1575 240.235 87.334C240.427 86.9378 240.879 86.7458 241.306 86.8697L243.573 87.5445C244.242 86.4487 245.06 85.4457 246.002 84.5603L244.874 82.4801C244.664 82.0962 244.769 81.6009 245.116 81.3347C246.621 80.1707 248.287 79.273 250.077 78.66C250.486 78.5176 250.957 78.7034 251.161 79.0872L252.282 81.1613C253.54 80.8518 254.828 80.7217 256.11 80.7713L256.785 78.5053C256.915 78.0781 257.324 77.8118 257.764 77.8614C258.681 77.979 259.61 78.1771 260.533 78.4495C261.449 78.722 262.335 79.0687 263.165 79.4773C263.568 79.663 263.753 80.1212 263.63 80.5484L262.948 82.8144C264.051 83.4769 265.054 84.2879 265.934 85.2414L268.009 84.1207C268.399 83.9102 268.882 84.0093 269.155 84.356C270.319 85.8481 271.217 87.5136 271.837 89.3152C271.979 89.73 271.793 90.1944 271.409 90.4049L269.328 91.5255C269.632 92.7823 269.768 94.0639 269.724 95.3517L271.985 96.0266C272.419 96.1566 272.679 96.5652 272.629 96.9986C272.512 97.9335 272.314 98.8622 272.047 99.7661C271.775 100.67 271.428 101.555 271.013 102.404C270.815 102.8 270.369 102.992 269.941 102.868L267.674 102.193C267.005 103.295 266.188 104.292 265.246 105.171L266.374 107.258C266.584 107.641 266.479 108.137 266.132 108.403C264.633 109.567 262.961 110.465 261.171 111.078C260.749 111.22 260.297 111.04 260.087 110.65L258.966 108.576C257.721 108.88 256.438 109.01 255.138 108.96L254.456 111.232C254.326 111.66 253.917 111.926 253.478 111.876C252.561 111.759 251.632 111.56 250.709 111.288C249.792 111.016 248.907 110.669 248.077 110.26C248.064 110.254 248.058 110.248 248.046 110.248C247.668 110.037 247.488 109.598 247.612 109.183ZM259.554 107.87L260.886 110.266C262.589 109.685 264.175 108.836 265.612 107.666L264.33 105.289C264.237 105.115 264.274 104.899 264.422 104.762C265.488 103.815 266.392 102.713 267.104 101.481C267.204 101.308 267.408 101.227 267.6 101.283L270.239 102.038C270.635 101.233 270.963 100.391 271.223 99.5308C271.477 98.6764 271.663 97.7911 271.738 96.8562L269.155 96.0823C268.963 96.0266 268.839 95.847 268.851 95.6489C268.932 94.2311 268.789 92.8071 268.418 91.4264C268.368 91.2345 268.455 91.0302 268.628 90.9373L271.031 89.6062C270.443 87.8974 269.588 86.3125 268.424 84.8885L266.051 86.1701C265.878 86.2629 265.661 86.2258 265.525 86.0772C264.571 85.0061 263.469 84.1084 262.23 83.4026C262.056 83.3035 261.976 83.0992 262.032 82.9073L262.787 80.2636C262.001 79.8797 261.158 79.5516 260.285 79.2916C259.412 79.0315 258.526 78.8396 257.609 78.7715L256.835 81.3594C256.779 81.5514 256.593 81.6752 256.395 81.6628C254.977 81.5699 253.558 81.7185 252.177 82.09C251.985 82.1395 251.781 82.0529 251.688 81.8795L250.35 79.4835C248.646 80.0593 247.061 80.9137 245.624 82.0838L246.912 84.4551C247.005 84.6284 246.968 84.8451 246.819 84.9813C245.748 85.9348 244.843 87.043 244.137 88.2751C244.038 88.4484 243.834 88.5289 243.642 88.4732L241.003 87.7179C240.619 88.5042 240.291 89.3462 240.031 90.2191C239.777 91.0674 239.591 91.9527 239.473 92.8504C239.473 92.869 239.492 92.8876 239.51 92.9L242.093 93.6739C242.279 93.7296 242.409 93.9091 242.397 94.1073C242.316 95.5313 242.459 96.9491 242.83 98.3235C242.88 98.5154 242.793 98.7198 242.62 98.8126L240.223 100.15C240.805 101.859 241.66 103.444 242.824 104.874L245.196 103.592C245.37 103.499 245.587 103.537 245.723 103.685C246.664 104.744 247.767 105.642 249.018 106.36C249.191 106.459 249.272 106.663 249.216 106.855L248.461 109.499C249.247 109.883 250.09 110.211 250.963 110.471C251.836 110.731 252.722 110.923 253.639 110.991L254.413 108.403C254.469 108.211 254.648 108.087 254.847 108.1C256.284 108.186 257.702 108.044 259.071 107.672C259.182 107.641 259.294 107.66 259.387 107.709C259.449 107.734 259.511 107.79 259.554 107.87ZM250.455 101.345C248.659 100.001 247.507 97.8654 247.364 95.6241C247.154 92.2313 248.82 89.1543 251.7 87.6002C254.58 86.0462 258.067 86.3434 260.787 88.3865C262.583 89.73 263.735 91.8722 263.877 94.1073C264.088 97.5001 262.422 100.571 259.542 102.131C257.058 103.468 254.128 103.431 251.626 102.094C251.217 101.877 250.827 101.63 250.455 101.345ZM252.109 88.3556C249.526 89.7486 248.033 92.5161 248.219 95.5684C248.343 97.562 249.371 99.4627 250.963 100.658C253.416 102.496 256.544 102.769 259.127 101.376C261.709 99.9828 263.202 97.2153 263.01 94.163C262.886 92.1756 261.864 90.2687 260.266 89.0738C259.926 88.8199 259.573 88.597 259.207 88.3989C256.965 87.1916 254.332 87.1545 252.109 88.3556Z"
            fill="#F0F0F0" />
        <path
            d="M216.078 49.7661C214.04 50.8619 212.869 53.035 213.012 55.4311C213.111 57.016 213.928 58.5267 215.198 59.474C215.458 59.6721 215.737 59.8454 216.022 60.0002C216.257 60.1241 216.493 60.2355 216.734 60.3222C218.339 60.9351 220.116 60.836 221.615 60.025C223.653 58.9291 224.824 56.756 224.681 54.36C224.582 52.775 223.764 51.2643 222.495 50.3171C220.575 48.8807 218.116 48.664 216.078 49.7661ZM216.425 50.3976C217.738 49.6856 219.299 49.6051 220.711 50.1375C220.928 50.218 221.132 50.3171 221.343 50.4223C221.597 50.5585 221.838 50.7133 222.073 50.8867C223.176 51.7101 223.882 53.0289 223.969 54.3971C224.099 56.5083 223.071 58.4214 221.281 59.3873C219.491 60.3531 217.329 60.1612 215.632 58.892C214.529 58.0685 213.823 56.756 213.736 55.3815C213.606 53.2765 214.635 51.3634 216.425 50.3976ZM207.313 51.4501C207.127 52.0754 206.985 52.7317 206.898 53.3941C206.855 53.7285 207.065 54.0504 207.388 54.1433L208.924 54.6014C208.899 55.4744 208.986 56.3474 209.19 57.1956L207.778 57.9571C207.48 58.1181 207.338 58.471 207.449 58.7867C207.877 60.0498 208.515 61.2261 209.326 62.2786C209.531 62.5448 209.902 62.6253 210.206 62.4582L211.618 61.6966C212.213 62.3281 212.894 62.8854 213.65 63.3435L213.185 64.8851C213.092 65.2009 213.228 65.5414 213.52 65.6962L213.532 65.7024C213.854 65.8634 214.189 66.0058 214.529 66.1358C214.814 66.241 215.099 66.3401 215.39 66.4268C216.034 66.6187 216.685 66.7611 217.335 66.8416C217.67 66.8849 217.985 66.6744 218.085 66.3525L218.549 64.8108C219.429 64.8356 220.302 64.7489 221.151 64.5508L221.912 65.9624C222.073 66.2596 222.427 66.402 222.742 66.2906C224 65.8634 225.177 65.2318 226.23 64.4146C226.496 64.2103 226.57 63.8326 226.415 63.5354L225.654 62.1176C226.292 61.5171 226.849 60.836 227.301 60.0931L228.837 60.5512C229.166 60.6503 229.506 60.5017 229.661 60.1983C229.958 59.5978 230.2 58.9787 230.392 58.341C230.578 57.7095 230.72 57.0532 230.801 56.3969C230.844 56.0626 230.634 55.7406 230.312 55.6478L228.775 55.1896C228.8 54.3166 228.713 53.4437 228.509 52.5893L229.927 51.8277C230.225 51.6668 230.367 51.3077 230.256 50.9919C229.822 49.7289 229.19 48.5588 228.373 47.5062C228.162 47.24 227.797 47.1657 227.493 47.3267L226.081 48.0882C225.48 47.4505 224.799 46.8933 224.049 46.4413L224.508 44.8997C224.607 44.5716 224.452 44.2187 224.148 44.0763C223.566 43.7915 222.941 43.55 222.296 43.3581C221.652 43.1662 220.996 43.0238 220.352 42.9433C220.017 42.8999 219.701 43.1042 219.602 43.4324L219.144 44.974C218.27 44.9431 217.397 45.0359 216.542 45.2402L215.78 43.8286C215.619 43.5314 215.266 43.389 214.95 43.5005C213.693 43.9277 212.516 44.5592 211.463 45.3764C211.197 45.5808 211.123 45.9584 211.277 46.2556L212.045 47.6672C211.407 48.274 210.85 48.955 210.392 49.6918L208.856 49.2336C208.527 49.1345 208.18 49.2831 208.032 49.5865C207.747 50.1809 207.505 50.8 207.313 51.4501ZM208.657 49.958L210.454 50.4719C210.615 50.5214 210.782 50.4533 210.869 50.3047C211.364 49.4503 211.99 48.6826 212.733 48.0201C212.857 47.9087 212.888 47.7291 212.807 47.5805L211.934 45.9646C212.882 45.2031 213.959 44.6149 215.13 44.2063L216.041 45.8408C216.121 45.9894 216.288 46.0575 216.449 46.0141C217.409 45.7541 218.394 45.655 219.379 45.717C219.546 45.7293 219.701 45.6241 219.745 45.4631L220.271 43.6986C220.847 43.7481 221.442 43.8658 222.08 44.0577C222.668 44.2373 223.238 44.4539 223.777 44.714L223.263 46.5156C223.213 46.6766 223.281 46.85 223.43 46.9305C224.285 47.4196 225.053 48.0449 225.716 48.7878C225.827 48.9117 226.007 48.9426 226.155 48.8621L227.772 47.9892C228.534 48.9302 229.128 50.0075 229.537 51.1839L227.902 52.094C227.753 52.1745 227.685 52.3416 227.729 52.5026C227.989 53.4622 228.088 54.4528 228.032 55.4373C228.026 55.5982 228.119 55.7406 228.261 55.7964C228.267 55.8025 228.28 55.8025 228.286 55.8087L230.045 56.335C229.996 56.9232 229.878 57.5175 229.692 58.1428C229.519 58.7248 229.296 59.2944 229.029 59.8393L227.233 59.3254C227.072 59.2758 226.905 59.3439 226.818 59.4925C226.323 60.3469 225.697 61.1147 224.954 61.7771C224.83 61.8886 224.793 62.0681 224.873 62.2167L225.747 63.8388C224.799 64.6003 223.721 65.1947 222.55 65.5971L221.64 63.9626C221.603 63.9007 221.553 63.8512 221.491 63.814C221.411 63.7707 221.318 63.7583 221.225 63.7831C220.277 64.0369 219.292 64.136 218.289 64.0803C218.122 64.0679 217.973 64.1731 217.924 64.3341L217.397 66.0986C216.821 66.0491 216.226 65.9315 215.588 65.7395C215 65.5662 214.43 65.3433 213.891 65.0833L214.405 63.2816C214.455 63.1206 214.387 62.9535 214.238 62.8668C213.371 62.3715 212.603 61.7462 211.946 61.0094C211.835 60.8856 211.655 60.8546 211.507 60.9289L209.89 61.8019C209.128 60.8608 208.54 59.7835 208.131 58.6072L209.766 57.6971C209.915 57.6166 209.989 57.4494 209.939 57.2884C209.679 56.335 209.58 55.3506 209.636 54.36C209.642 54.1928 209.543 54.0442 209.382 53.9947L207.598 53.4622C207.679 52.8431 207.809 52.2364 207.982 51.6544C208.18 51.06 208.403 50.4904 208.657 49.958Z"
            fill="#F0F0F0" />
        <path
            d="M261.115 25.1678C259.077 26.2636 257.906 28.4367 258.049 30.8328C258.148 32.4177 258.966 33.9284 260.235 34.8757C260.495 35.0738 260.774 35.2471 261.059 35.4019C261.294 35.5258 261.53 35.6372 261.771 35.7239C263.376 36.3368 265.153 36.2377 266.652 35.4267C268.69 34.3308 269.861 32.1577 269.718 29.7617C269.619 28.1767 268.802 26.666 267.532 25.7188C265.612 24.2762 263.153 24.0657 261.115 25.1678ZM261.455 25.7993C262.769 25.0873 264.33 25.0068 265.742 25.5392C265.959 25.6197 266.163 25.7188 266.374 25.824C266.627 25.9602 266.869 26.115 267.104 26.2884C268.207 27.1118 268.913 28.4306 269 29.7988C269.13 31.91 268.102 33.8231 266.312 34.789C264.522 35.7548 262.36 35.5629 260.663 34.2937C259.56 33.4702 258.854 32.1577 258.767 30.7832C258.637 28.672 259.672 26.7651 261.455 25.7993ZM252.35 26.8456C252.165 27.4709 252.022 28.1272 251.935 28.7896C251.892 29.124 252.103 29.4459 252.425 29.5388L253.961 29.9969C253.936 30.8699 254.023 31.7429 254.227 32.5911L252.815 33.3526C252.518 33.5136 252.375 33.8665 252.487 34.1822C252.914 35.4453 253.552 36.6216 254.363 37.6741C254.568 37.9403 254.939 38.0208 255.243 37.8537L256.655 37.0921C257.25 37.7237 257.931 38.2809 258.687 38.739L258.222 40.2806C258.129 40.5964 258.266 40.9369 258.557 41.0917L258.569 41.0979C258.891 41.2589 259.226 41.4013 259.566 41.5313C259.851 41.6365 260.136 41.7356 260.427 41.8223C261.071 42.0142 261.722 42.1566 262.372 42.2371C262.707 42.2804 263.023 42.0699 263.122 41.748L263.586 40.2064C264.466 40.2311 265.339 40.1444 266.188 39.9463L266.95 41.3579C267.111 41.6551 267.464 41.7975 267.78 41.6861C269.037 41.2589 270.214 40.6274 271.267 39.8101C271.533 39.6058 271.607 39.2281 271.453 38.9309L270.691 37.5131C271.329 36.9126 271.886 36.2316 272.338 35.4886L273.874 35.9468C274.203 36.0458 274.543 35.8972 274.698 35.5939C274.989 34.9933 275.237 34.3742 275.429 33.7365C275.615 33.105 275.757 32.4487 275.838 31.7924C275.881 31.4581 275.671 31.1361 275.349 31.0433L273.813 30.5851C273.837 29.7121 273.751 28.8392 273.546 27.9848L274.965 27.2233C275.262 27.0623 275.404 26.7032 275.293 26.3874C274.859 25.1244 274.228 23.9543 273.41 22.9017C273.199 22.6355 272.834 22.5612 272.53 22.7222L271.118 23.4837C270.517 22.846 269.836 22.2888 269.086 21.8368L269.545 20.2952C269.644 19.9671 269.489 19.6142 269.186 19.4718C268.603 19.187 267.978 18.9455 267.334 18.7536C266.689 18.5617 266.033 18.4193 265.389 18.3388C265.054 18.2954 264.738 18.4998 264.639 18.8279L264.181 20.3695C263.308 20.3386 262.434 20.4314 261.579 20.6357L260.818 19.2241C260.656 18.927 260.303 18.7846 259.988 18.896C258.73 19.3232 257.553 19.9547 256.5 20.772C256.234 20.9763 256.16 21.3539 256.314 21.6511L257.083 23.0627C256.445 23.6695 255.887 24.3505 255.429 25.0873L253.893 24.6291C253.564 24.5301 253.217 24.6786 253.069 24.982C252.784 25.5826 252.542 26.2017 252.35 26.8456ZM253.694 25.3597L255.491 25.8736C255.652 25.9231 255.819 25.855 255.906 25.7064C256.401 24.852 257.027 24.0843 257.77 23.4218C257.894 23.3104 257.925 23.1308 257.844 22.9822L256.971 21.3663C257.919 20.6048 258.996 20.0166 260.167 19.608L261.078 21.2425C261.158 21.3911 261.325 21.4592 261.486 21.4158C262.447 21.1558 263.438 21.0567 264.416 21.1187C264.583 21.131 264.738 21.0258 264.782 20.8648L265.308 19.1003C265.884 19.1498 266.479 19.2675 267.117 19.4594C267.705 19.6389 268.275 19.8556 268.814 20.1157L268.3 21.9173C268.25 22.0783 268.318 22.2517 268.467 22.3322C269.322 22.8213 270.09 23.4466 270.753 24.1895C270.864 24.3134 271.044 24.3443 271.192 24.2638L272.809 23.3909C273.571 24.3319 274.166 25.4092 274.574 26.5856L272.939 27.4957C272.791 27.5762 272.722 27.7433 272.766 27.9043C273.026 28.8639 273.125 29.8545 273.069 30.839C273.063 30.9999 273.156 31.1423 273.298 31.1981C273.305 31.2042 273.317 31.2042 273.323 31.2104L275.082 31.7367C275.033 32.3249 274.915 32.9192 274.729 33.5445C274.556 34.1265 274.333 34.6961 274.066 35.2409L272.27 34.7271C272.109 34.6775 271.942 34.7456 271.855 34.8942C271.36 35.7486 270.734 36.5164 269.991 37.1788C269.867 37.2903 269.83 37.4698 269.91 37.6184L270.784 39.2405C269.836 40.002 268.758 40.5964 267.588 40.9988L266.677 39.3643C266.64 39.3024 266.59 39.2529 266.528 39.2157C266.448 39.1724 266.355 39.16 266.262 39.1848C265.314 39.4386 264.33 39.5377 263.326 39.482C263.159 39.4696 263.01 39.5748 262.961 39.7358L262.434 41.5003C261.858 41.4508 261.263 41.3332 260.625 41.1412C260.037 40.9617 259.467 40.745 258.928 40.485L259.442 38.6833C259.492 38.5223 259.424 38.3552 259.275 38.2685C258.408 37.7732 257.64 37.1479 256.983 36.4111C256.872 36.2873 256.692 36.2563 256.544 36.3306L254.927 37.2036C254.165 36.2625 253.577 35.1852 253.168 34.0089L254.803 33.0988C254.952 33.0183 255.026 32.8511 254.977 32.6901C254.716 31.7367 254.617 30.7523 254.673 29.7617C254.679 29.5945 254.58 29.4459 254.419 29.3964L252.635 28.8639C252.716 28.2448 252.846 27.6381 253.019 27.0561C253.217 26.4617 253.434 25.8921 253.694 25.3597Z"
            fill="#F0F0F0" />
        <path
            d="M99.1901 236.086C106.66 238.723 113.808 242.259 120.436 246.593C127.881 251.465 134.694 257.359 142.622 261.402C152.929 266.658 164.747 268.541 176.299 267.971C182.846 267.649 189.957 266.231 194.125 261.179C195.191 259.885 196.039 258.319 196.058 256.641C196.083 254.177 194.348 252.072 192.558 250.382C183.007 241.361 169.709 237.665 156.887 234.786C144.066 231.901 136.373 228.285 123.768 221.759C118.373 218.967 113.058 215.964 107.626 213.333C107.583 213.314 107.54 213.29 107.496 213.271C104.74 211.94 102.758 210.188 98.9981 208.628C94.4517 206.745 90.8778 205.625 85.9845 205.08C81.0913 204.535 76.5945 204.319 72.0543 206.219C70.8836 206.708 68.8705 207.86 67.9848 209.049C67.0991 210.244 66.6407 211.717 66.6779 212.788C66.7522 214.967 67.6565 217.066 68.9449 218.831C70.2332 220.595 71.887 222.056 73.6089 223.4C81.1161 229.263 90.277 232.935 99.1901 236.086Z"
            fill="#E0E0E0" />
        <path
            d="M38.3354 206.863L8.26978 189.515C7.15486 188.871 7.15486 187.824 8.26978 187.18L38.3354 169.833C39.4503 169.189 41.259 169.189 42.3739 169.833L72.4395 187.18C73.5544 187.824 73.5544 188.871 72.4395 189.508L42.3739 206.856C41.259 207.506 39.4503 207.506 38.3354 206.863Z"
            fill="#E0E0E0" />
        <path
            d="M235.898 241.404L205.832 224.056C204.717 223.412 204.717 222.366 205.832 221.728L235.898 204.38C237.013 203.736 238.821 203.736 239.936 204.38L270.002 221.728C271.117 222.372 271.117 223.419 270.002 224.062L239.936 241.41C238.821 242.048 237.013 242.048 235.898 241.404Z"
            fill="#E0E0E0" />
        <path
            d="M68.8403 184.184L42.1442 168.774C41.6487 168.483 40.9983 168.341 40.3541 168.341C39.7099 168.341 39.0534 168.483 38.5578 168.774L11.8679 184.184C11.3724 184.475 11.1309 184.847 11.1309 185.218V187.162C11.1309 187.534 11.3724 187.905 11.8679 188.196L38.5578 203.594C39.0534 203.885 39.7099 204.027 40.3541 204.027C40.9983 204.027 41.6487 203.885 42.1442 203.594L68.8403 188.196C69.3358 187.905 69.5774 187.534 69.5774 187.162V185.218C69.5774 184.847 69.3358 184.475 68.8403 184.184Z"
            fill="#933BFF" />
        <path
            d="M69.5787 185.218V187.162C69.5787 187.534 69.3372 187.905 68.8416 188.196L42.1455 203.594C41.65 203.885 40.9996 204.027 40.3555 204.027V168.341C40.9996 168.341 41.65 168.483 42.1455 168.774L68.8416 184.184C69.3372 184.475 69.5787 184.847 69.5787 185.218Z"
            fill="black" opacity="0.1" />
        <path
            d="M40.3541 168.347V204.033C39.7099 204.033 39.0534 203.891 38.5578 203.6L11.8679 188.202C11.3724 187.911 11.1309 187.54 11.1309 187.168V185.224C11.1309 184.853 11.3724 184.481 11.8679 184.19L38.5578 168.78C39.0534 168.489 39.7099 168.347 40.3541 168.347Z"
            fill="black" opacity="0.3" />
        <path
            d="M38.5644 201.662L11.8683 186.258C10.8772 185.689 10.8772 184.76 11.8683 184.19L38.5644 168.787C39.5554 168.217 41.1597 168.217 42.1507 168.787L68.8468 184.19C69.8378 184.76 69.8378 185.689 68.8468 186.258L42.1507 201.662C41.1597 202.232 39.5554 202.232 38.5644 201.662Z"
            fill="#933BFF" />
        <path
            d="M38.5644 201.662L11.8683 186.258C10.8772 185.689 10.8772 184.76 11.8683 184.19L38.5644 168.787C39.5554 168.217 41.1597 168.217 42.1507 168.787L68.8468 184.19C69.8378 184.76 69.8378 185.689 68.8468 186.258L42.1507 201.662C41.1597 202.232 39.5554 202.232 38.5644 201.662Z"
            fill="white" opacity="0.5" />
        <path
            d="M40.3548 168.354C39.7044 168.354 39.054 168.496 38.5585 168.781L11.8624 184.185C10.8714 184.754 10.8714 185.683 11.8624 186.252L38.5585 201.656C39.054 201.941 39.7044 202.084 40.3548 202.084V168.354Z"
            fill="black" opacity="0.05" />
        <path
            d="M56.8305 183.281H56.8367L45.031 147.811C45.031 147.805 45.0248 147.799 45.0248 147.793L45.0124 147.762H45.0062C44.8204 147.26 44.3992 146.777 43.724 146.387C41.8658 145.316 38.8556 145.316 36.9974 146.387C36.3222 146.777 35.8948 147.26 35.7152 147.762H35.709L35.6966 147.799C35.6966 147.799 35.6966 147.805 35.6904 147.805L23.8785 183.275H23.8847C22.8007 186.358 24.3245 189.689 28.4682 192.085C35.0401 195.874 45.6875 195.874 52.2594 192.085C56.397 189.695 57.9207 186.364 56.8305 183.281Z"
            fill="#933BFF" />
        <path
            d="M48.4127 157.983L48.4003 157.946L46.7218 152.907C47.0005 153.761 46.7527 154.665 45.9847 155.445C45.7059 155.73 45.3591 156.002 44.9317 156.25C42.3984 157.711 38.2979 157.711 35.7646 156.25C35.3434 156.008 34.9965 155.736 34.7116 155.445C33.9436 154.665 33.6958 153.761 33.9807 152.9L32.296 157.959L32.2898 157.983C32.011 158.825 32.1411 159.705 32.6614 160.516C33.0578 161.135 33.6834 161.723 34.5444 162.218C35.1576 162.571 35.8513 162.837 36.5822 163.054C38.9421 163.76 41.748 163.76 44.1079 163.054C44.8388 162.837 45.5325 162.571 46.1457 162.218C47.0129 161.717 47.6323 161.135 48.0287 160.516C48.5614 159.705 48.6915 158.825 48.4127 157.983Z"
            fill="#FAFAFA" />
        <path
            d="M55.1826 178.303L55.1702 178.272L53.4917 173.227C53.7704 174.062 53.789 174.923 53.5846 175.765C53.3678 176.644 52.9032 177.511 52.16 178.316C51.5529 178.972 50.7725 179.591 49.8124 180.148C44.5909 183.164 36.1175 183.164 30.896 180.148C29.9359 179.597 29.1555 178.978 28.5485 178.316C27.8052 177.511 27.3406 176.65 27.1238 175.765C26.9194 174.923 26.9442 174.069 27.2168 173.233L25.5382 178.266L25.5258 178.31C25.2471 179.145 25.1913 180 25.34 180.848C25.6806 182.767 27.1238 184.637 29.6758 186.111C35.5725 189.516 45.136 189.516 51.0327 186.111C53.5846 184.637 55.0278 182.767 55.3684 180.848C55.5233 180 55.4614 179.145 55.1826 178.303Z"
            fill="#FAFAFA" />
        <path
            d="M51.8002 168.144L51.7878 168.106L50.1092 163.061C50.3879 163.903 50.326 164.769 49.9482 165.599C49.527 166.528 48.697 167.407 47.452 168.144C47.4272 168.162 47.4024 168.175 47.3776 168.193C43.5002 170.428 37.2133 170.428 33.3359 168.193C33.3111 168.175 33.2863 168.162 33.2615 168.144C32.0165 167.407 31.1866 166.528 30.7654 165.599C30.3875 164.769 30.3318 163.903 30.6043 163.061L28.9257 168.106L28.9134 168.144C28.6346 168.986 28.6346 169.852 28.9196 170.694C29.2169 171.586 29.8425 172.447 30.7716 173.22C31.168 173.549 31.6139 173.871 32.1218 174.161C33.4226 174.911 34.9649 175.443 36.6001 175.765C39.0405 176.242 41.6916 176.242 44.1258 175.765C45.761 175.443 47.2971 174.917 48.6041 174.161C49.112 173.864 49.5579 173.549 49.9543 173.22C50.8834 172.447 51.5028 171.586 51.8063 170.694C52.0789 169.852 52.0789 168.986 51.8002 168.144Z"
            fill="#FAFAFA" />
        <path
            d="M40.3549 145.582C39.1346 145.582 37.9206 145.848 36.9915 146.387C36.3164 146.777 35.889 147.26 35.7094 147.761H35.7032L35.6908 147.799C35.6908 147.799 35.6908 147.805 35.6846 147.805L23.8726 183.274H23.8788C22.7949 186.358 24.3186 189.689 28.4624 192.085C31.7452 193.979 36.05 194.926 40.361 194.926C40.3301 194.92 40.2929 194.914 40.2619 194.908C34.9351 194.053 31.3426 188.97 32.0859 183.627L36.9977 148.325L40.3549 145.582Z"
            fill="black" opacity="0.1" />
        <path
            d="M36.9913 150.269C35.1331 149.198 35.1331 147.458 36.9913 146.387C38.8495 145.316 41.8598 145.316 43.718 146.387C45.5762 147.458 45.5762 149.198 43.718 150.269C41.8598 151.34 38.8495 151.34 36.9913 150.269Z"
            fill="#933BFF" />
        <path
            d="M36.9913 150.269C35.1331 149.198 35.1331 147.458 36.9913 146.387C38.8495 145.316 41.8598 145.316 43.718 146.387C45.5762 147.458 45.5762 149.198 43.718 150.269C41.8598 151.34 38.8495 151.34 36.9913 150.269Z"
            fill="white" opacity="0.5" />
        <path
            d="M266.403 218.725L239.707 203.315C239.211 203.024 238.561 202.882 237.917 202.882C237.272 202.882 236.616 203.024 236.12 203.315L209.43 218.725C208.935 219.016 208.693 219.388 208.693 219.759V221.703C208.693 222.075 208.935 222.446 209.43 222.737L236.12 238.135C236.616 238.426 237.272 238.568 237.917 238.568C238.561 238.568 239.211 238.426 239.707 238.135L266.403 222.737C266.898 222.446 267.14 222.075 267.14 221.703V219.759C267.14 219.388 266.898 219.01 266.403 218.725Z"
            fill="#933BFF" />
        <path
            d="M267.141 219.759V221.703C267.141 222.074 266.9 222.446 266.404 222.737L239.708 238.141C239.213 238.432 238.562 238.574 237.918 238.574V202.888C238.562 202.888 239.213 203.03 239.708 203.321L266.404 218.731C266.9 219.01 267.141 219.387 267.141 219.759Z"
            fill="black" opacity="0.1" />
        <path
            d="M237.917 202.882V238.568C237.272 238.568 236.616 238.426 236.12 238.135L209.43 222.737C208.935 222.446 208.693 222.075 208.693 221.703V219.759C208.693 219.388 208.935 219.016 209.43 218.725L236.12 203.315C236.616 203.024 237.272 202.882 237.917 202.882Z"
            fill="black" opacity="0.3" />
        <path
            d="M236.127 236.197L209.431 220.793C208.44 220.224 208.44 219.295 209.431 218.726L236.127 203.322C237.118 202.752 238.722 202.752 239.713 203.322L266.409 218.726C267.4 219.295 267.4 220.224 266.409 220.793L239.713 236.197C238.722 236.773 237.118 236.773 236.127 236.197Z"
            fill="#933BFF" />
        <path
            d="M236.127 236.197L209.431 220.793C208.44 220.224 208.44 219.295 209.431 218.726L236.127 203.322C237.118 202.752 238.722 202.752 239.713 203.322L266.409 218.726C267.4 219.295 267.4 220.224 266.409 220.793L239.713 236.197C238.722 236.773 237.118 236.773 236.127 236.197Z"
            fill="white" opacity="0.5" />
        <path
            d="M237.917 202.888C237.267 202.888 236.617 203.03 236.121 203.315L209.425 218.719C208.434 219.288 208.434 220.217 209.425 220.787L236.121 236.191C236.617 236.475 237.267 236.618 237.917 236.618V202.888Z"
            fill="black" opacity="0.05" />
        <path
            d="M254.399 217.816H254.405L242.593 182.352C242.593 182.346 242.587 182.34 242.587 182.334L242.575 182.303H242.569C242.383 181.801 241.962 181.318 241.287 180.928C239.428 179.857 236.418 179.857 234.56 180.928C233.885 181.318 233.457 181.801 233.278 182.303H233.272L233.259 182.34C233.259 182.34 233.259 182.346 233.253 182.346L221.441 217.816H221.447C220.363 220.899 221.887 224.23 226.031 226.626C232.603 230.415 243.25 230.415 249.822 226.626C253.959 224.23 255.483 220.905 254.399 217.816Z"
            fill="#933BFF" />
        <path
            d="M245.975 192.524L245.963 192.487L244.284 187.448C244.563 188.302 244.315 189.206 243.547 189.986C243.268 190.271 242.922 190.543 242.494 190.791C239.961 192.252 235.86 192.252 233.327 190.791C232.906 190.549 232.559 190.277 232.274 189.986C231.506 189.206 231.258 188.302 231.543 187.441L229.858 192.5L229.852 192.524C229.574 193.366 229.704 194.246 230.224 195.057C230.62 195.676 231.246 196.264 232.107 196.759C232.72 197.112 233.414 197.378 234.145 197.595C236.505 198.301 239.31 198.301 241.67 197.595C242.401 197.378 243.095 197.112 243.708 196.759C244.575 196.258 245.195 195.676 245.591 195.057C246.124 194.239 246.254 193.366 245.975 192.524Z"
            fill="#FAFAFA" />
        <path
            d="M252.745 212.844L252.733 212.813L251.055 207.768C251.333 208.603 251.352 209.464 251.147 210.306C250.931 211.185 250.466 212.052 249.723 212.857C249.116 213.513 248.335 214.132 247.375 214.689C242.154 217.705 233.68 217.705 228.459 214.689C227.499 214.138 226.718 213.519 226.111 212.857C225.368 212.052 224.903 211.191 224.687 210.306C224.482 209.464 224.501 208.61 224.78 207.774L223.101 212.807L223.082 212.857C222.804 213.693 222.748 214.547 222.897 215.395C223.237 217.315 224.68 219.184 227.232 220.658C233.129 224.063 242.693 224.063 248.589 220.658C251.141 219.184 252.584 217.315 252.925 215.395C253.086 214.541 253.024 213.68 252.745 212.844Z"
            fill="#FAFAFA" />
        <path
            d="M249.363 202.685L249.35 202.647L247.672 197.602C247.95 198.444 247.888 199.31 247.511 200.14C247.089 201.069 246.259 201.948 245.014 202.685C244.99 202.703 244.965 202.716 244.94 202.734C241.063 204.969 234.776 204.969 230.898 202.734C230.874 202.716 230.849 202.703 230.824 202.685C229.579 201.948 228.749 201.069 228.328 200.14C227.95 199.31 227.894 198.444 228.167 197.602L226.488 202.647L226.476 202.685C226.197 203.527 226.197 204.393 226.482 205.235C226.779 206.127 227.405 206.988 228.334 207.761C228.73 208.09 229.176 208.412 229.684 208.703C230.985 209.452 232.527 209.984 234.163 210.306C236.603 210.783 239.254 210.783 241.688 210.306C243.324 209.984 244.86 209.458 246.167 208.703C246.674 208.405 247.12 208.09 247.517 207.761C248.446 206.988 249.065 206.127 249.369 205.235C249.641 204.393 249.641 203.527 249.363 202.685Z"
            fill="#FAFAFA" />
        <path
            d="M237.917 180.123C236.697 180.123 235.483 180.389 234.554 180.928C233.879 181.318 233.451 181.801 233.272 182.302H233.266L233.253 182.34C233.253 182.34 233.253 182.346 233.247 182.346L221.435 217.816H221.441C220.357 220.899 221.881 224.23 226.025 226.626C229.308 228.52 233.613 229.467 237.924 229.467C237.893 229.461 237.855 229.455 237.824 229.449C232.498 228.595 228.905 223.511 229.648 218.168L234.56 182.866L237.917 180.123Z"
            fill="black" opacity="0.1" />
        <path
            d="M234.554 184.81C232.696 183.739 232.696 181.999 234.554 180.928C236.412 179.857 239.422 179.857 241.28 180.928C243.139 181.999 243.139 183.739 241.28 184.81C239.422 185.881 236.412 185.881 234.554 184.81Z"
            fill="#933BFF" />
        <path
            d="M234.554 184.81C232.696 183.739 232.696 181.999 234.554 180.928C236.412 179.857 239.422 179.857 241.28 180.928C243.139 181.999 243.139 183.739 241.28 184.81C239.422 185.881 236.412 185.881 234.554 184.81Z"
            fill="white" opacity="0.5" />
        <path
            d="M79.8725 208.069C79.6867 207.264 79.6062 206.434 79.6619 205.586C79.8106 203.487 80.2441 200.93 81.3095 199.16C82.5235 197.154 83.9048 195.21 84.7843 192.999C85.7258 190.622 86.3576 188.35 86.7231 185.787C87.0018 183.812 87.0018 181.601 87.7513 179.738C90.0306 174.085 96.0078 174.939 99.4393 174.475L112.038 165.758L115.897 183.199C115.897 183.199 109.17 185.446 107.2 186.424C104.593 187.724 102.09 191.018 100.449 193.377C98.3678 196.374 95.8096 199.475 95.6362 203.333C95.5433 205.425 95.9149 207.506 96.2432 209.58C96.3361 210.168 96.4228 210.768 96.3361 211.357C96.1008 212.985 94.6761 214.074 93.3692 214.978C91.2509 216.44 88.7113 217.969 86.3266 217.077C84.964 216.57 83.9605 215.362 83.0686 214.167C81.6997 212.353 80.3866 210.292 79.8725 208.069Z"
            fill="#FFA8A7" />
        <path
            d="M95.0662 218.346C94.2424 219.392 93.047 220.067 91.7586 220.098C91.0463 220.117 90.1792 220.049 89.2005 219.801C86.7725 219.188 84.9019 217.944 84.9019 217.944C80.7148 215.405 77.8841 211.078 77.624 207.4C77.3886 204.026 80.0706 197.036 80.8015 195.073C81.5943 192.943 81.7553 190.597 81.6624 188.331C81.5633 185.997 81.6377 183.663 81.9845 181.353C82.1208 180.449 82.2694 179.527 82.6968 178.728C83.2357 177.719 84.202 177.032 85.2364 176.697C85.6204 176.574 86.8716 176.598 87.076 176.184C87.0636 176.215 85.1744 180.078 85.3293 182.604C85.4841 185.136 84.9205 196.082 83.9604 198.912C83.0003 201.741 83.4215 206.923 85.5646 210.341C87.7078 213.758 95.89 217.306 95.89 217.306L95.0662 218.346Z"
            fill="#263238" />
        <path
            d="M83.3162 192.009C83.1242 193.866 82.5357 195.711 81.8482 197.432C80.1573 201.655 79.0114 206.67 81.043 211.022C81.8606 212.768 83.2295 214.186 84.7656 215.27C86.3017 216.359 87.9803 217.232 89.727 217.888C92.2293 218.829 94.645 218.6 95.0786 218.353C96.3669 217.443 97.1102 216.068 97.1536 214.359C97.2279 211.567 96.689 208.781 96.7448 205.989C96.7695 204.596 96.6147 203.147 96.9925 201.791C98.0641 197.953 100.628 194.343 102.493 190.876C102.833 190.244 103.18 189.551 103.063 188.833C102.951 188.158 102.437 187.638 101.942 187.192C100.926 186.282 99.8603 185.434 98.7392 184.666C98.3242 184.381 97.8287 184.09 97.3518 184.239C96.8562 184.394 96.5899 184.938 96.3236 185.403C96.0572 185.867 95.6113 186.344 95.1033 186.226C95.3449 185.489 95.5865 184.722 95.5369 183.942C95.3945 181.849 92.6629 180.834 93.5177 178.37C93.8336 177.459 94.645 176.846 95.4378 176.351C96.5899 175.627 98.2004 174.995 99.4577 174.494C99.4701 173.899 99.1047 173.695 98.8012 173.701C98.1322 173.707 97.4695 173.776 96.8067 173.844C95.3139 173.992 93.8212 174.141 92.3284 174.296C90.9162 174.438 89.6341 174.717 88.2466 175.082C87.621 175.249 86.9768 175.416 86.438 175.788C85.577 176.376 85.0753 177.385 84.6975 178.382C83.8489 180.617 83.4525 183.007 83.3286 185.403C83.2047 187.595 83.5392 189.823 83.3162 192.009Z"
            fill="#37474F" />
        <path
            d="M170.677 107.665C170.677 107.665 171.495 119.36 170.906 133.34C170.72 137.786 170.014 147.834 167.252 153.945C161.727 166.16 147.431 171.039 144.73 172.246C132.466 177.725 115.29 184.35 113.835 184.92C113.835 184.92 102.902 177.106 104.779 169.243C114.138 161.529 124.154 152.267 133.364 150.744L141.249 108.389L170.677 107.665Z"
            fill="#37474F" />
        <path
            d="M113.505 185.576L120.096 182.883C120.096 182.883 115.803 180.828 112.799 175.119C109.795 169.405 110.668 163.82 110.668 163.82L104.016 169.157C104.016 169.157 102.567 172.952 105.887 179.051C109.207 185.149 113.505 185.576 113.505 185.576Z"
            fill="#455A64" />
        <path
            d="M164.55 118.611L138.826 123.199L138.256 124.444L133.357 150.744C129.232 151.425 124.654 153.549 120.281 156.886L120.517 157.344L130.557 178.345C135.698 176.413 140.728 174.029 144.729 172.24C146.754 171.33 156.175 167.956 162.407 161.127L155.748 131.669C155.748 131.681 164.302 128.567 164.55 118.611Z"
            fill="#263238" />
        <path
            d="M172.467 233.416C171.315 233.503 171.259 231.912 170.776 228.179C170.243 224.074 168.187 207.995 168.187 207.995L149.766 215.635C149.766 215.635 154.541 228.872 156.046 232.686C157.713 236.927 160.048 242.747 160.432 246.047C160.81 249.347 160.989 258.559 164.922 260.206C168.862 261.859 172.516 259.971 175.118 258.182C177.719 256.392 180.723 250.145 183.603 246.982C186.477 243.818 188.905 242.059 191.129 238.79C193.353 235.521 193.186 227.43 190.181 225.752C187.177 224.074 182.903 225.993 180.395 227.578C177.868 229.169 174.604 233.262 172.467 233.416Z"
            fill="#FFA8A7" />
        <path
            d="M117.898 106.31C116.715 110.13 115.061 115.287 114.671 122.339C114.156 131.533 117.198 138.219 120.047 143.81C125.553 154.632 126.761 157.635 138.976 182.184C139.007 187.694 139.998 196.064 143.832 206.404C148.595 219.257 153.581 230.958 153.581 230.958C153.581 230.958 160.686 222.26 171.5 223.455C170.937 217.121 165.913 186.579 164.154 177.67C161.968 166.582 152.559 130.078 152.559 130.078C152.559 130.078 168.391 125.472 171.5 107.709L117.898 106.31Z"
            fill="#37474F" />
        <path
            d="M151.4 225.726L153.989 232.215C153.989 232.215 156.541 228.197 162.568 225.894C168.601 223.59 171.729 224.971 171.729 224.971L170.713 217.35C170.713 217.35 165.931 215.994 159.477 218.563C153.029 221.139 151.4 225.726 151.4 225.726Z"
            fill="#455A64" />
        <path
            d="M190.596 225.349C188.843 223.591 186.043 223.622 182.339 225.566C177.91 227.887 175.755 230.593 175.749 230.593C175.179 231.305 174.615 231.844 173.655 231.515C173.339 231.41 173.06 231.212 172.769 231.057C170.694 229.949 168.186 230.896 166.117 232.029C165.906 232.147 165.69 232.271 165.566 232.481C165.206 233.088 165.82 233.8 166.383 234.196C166.941 234.586 167.399 235.069 167.808 235.633C167.288 235.496 166.761 235.366 166.241 235.23C165.925 235.15 165.59 235.063 165.268 235.137C164.692 235.267 164.321 235.843 164.048 236.394C163.689 237.119 163.392 237.88 163.169 238.666C162.952 239.409 162.778 240.22 162.246 240.759C161.732 241.279 160.933 241.44 160.257 241.199C159.582 240.957 158.882 240.338 158.684 239.62C158.635 239.676 158.585 239.725 158.523 240.047C158.48 240.264 158.486 240.462 158.536 240.672C158.672 241.261 159.05 241.743 159.235 242.313C159.799 244.034 159.985 245.923 160.134 247.724C160.536 252.56 161.069 255.197 161.905 257.643L181.243 237.992L179.961 236.27C184.284 233.503 190.596 225.349 190.596 225.349Z"
            fill="#37474F" />
        <path
            d="M193.271 228.742C192.987 227.373 192.497 226.538 191.853 226.098C191.605 225.931 190.757 225.46 190.589 225.349C188.409 223.857 184.495 227.064 181.193 230.209C177.353 233.874 173.798 241.223 170.688 246.207C167.579 251.185 163.72 253.104 162.444 255.296C161.54 256.856 161.781 258.571 162.816 259.754C163.014 259.983 163.745 260.695 163.887 260.843C164.909 261.871 166.712 262.286 168.849 261.859C173.153 260.986 176.25 259.549 179.812 254.219C183.373 248.888 185.256 246.127 189.413 242.703C193.575 239.273 194.157 233.038 193.271 228.742Z"
            fill="#37474F" />
        <path
            d="M193.271 228.742C192.026 222.724 186.73 226.897 182.462 230.965C178.622 234.63 175.066 241.979 171.957 246.963C168.848 251.941 164.896 253.798 163.713 256.052C161.57 260.15 164.543 262.726 168.854 261.859C173.159 260.986 176.256 259.55 179.817 254.219C183.379 248.889 185.262 246.127 189.418 242.703C193.574 239.274 194.156 233.039 193.271 228.742Z"
            fill="#263238" />
        <path d="M222.985 170.977L220.52 151.221L243.214 134.059L243.413 155.536L222.985 170.977Z"
            fill="#263238" />
        <path d="M222.985 170.977L183.665 154.384L178.58 133.52L220.52 151.22L222.985 170.977Z"
            fill="#37474F" />
        <path
            d="M244.218 129.638C244.174 129.31 243.921 129.013 243.456 128.814L202.247 111.423C201.318 111.033 199.918 111.206 199.119 111.813L177.063 128.492C176.66 128.796 176.487 129.149 176.53 129.477C176.573 129.805 177.193 134.795 177.236 135.123C177.273 135.451 177.533 135.755 177.998 135.947L219.207 153.338C220.129 153.728 221.535 153.555 222.334 152.948L244.391 136.269C244.794 135.965 244.967 135.612 244.924 135.284C244.881 134.956 244.255 129.96 244.218 129.638Z"
            fill="#933BFF" />
        <path
            d="M243.456 128.815L216.295 117.354L220.81 153.524C221.374 153.456 221.925 153.258 222.328 152.954L244.385 136.275C244.787 135.972 244.961 135.619 244.917 135.291C244.874 134.962 244.255 129.966 244.211 129.644C244.174 129.31 243.92 129.013 243.456 128.815Z"
            fill="black" opacity="0.2" />
        <path
            d="M216.296 117.354L202.242 111.423C201.312 111.033 199.913 111.206 199.114 111.813L177.057 128.492C176.654 128.796 176.481 129.149 176.524 129.477C176.567 129.805 177.193 134.795 177.23 135.123C177.267 135.451 177.527 135.755 177.992 135.947L219.201 153.338C219.665 153.536 220.247 153.586 220.811 153.518L216.296 117.354Z"
            fill="black" opacity="0.1" />
        <path
            d="M221.623 147.302L243.68 130.622C244.479 130.015 244.38 129.211 243.457 128.814L202.248 111.423C201.325 111.033 199.919 111.206 199.12 111.813L177.063 128.492C176.264 129.099 176.363 129.904 177.286 130.3L218.495 147.692C219.418 148.082 220.818 147.908 221.623 147.302Z"
            fill="#933BFF" />
        <path
            d="M221.623 147.302L243.68 130.622C244.479 130.015 244.38 129.211 243.457 128.814L202.248 111.423C201.325 111.033 199.919 111.206 199.12 111.813L177.063 128.492C176.264 129.099 176.363 129.904 177.286 130.3L218.495 147.692C219.418 148.082 220.818 147.908 221.623 147.302Z"
            fill="white" opacity="0.1" />
        <path
            d="M184.254 129.229C183.628 129.706 183.746 130.35 184.514 130.678L213.18 142.776C213.954 143.104 215.087 142.98 215.713 142.51C216.339 142.033 216.221 141.389 215.453 141.061L186.793 128.963C186.013 128.635 184.879 128.753 184.254 129.229Z"
            fill="black" opacity="0.2" />
        <path
            d="M213.18 142.775C213.954 143.104 215.088 142.98 215.713 142.509C215.763 142.472 215.794 142.435 215.831 142.398C215.763 142.354 215.688 142.311 215.602 142.274L186.942 130.176C186.168 129.848 185.034 129.972 184.409 130.442C184.359 130.48 184.328 130.517 184.291 130.554C184.359 130.597 184.433 130.641 184.52 130.678L213.18 142.775Z"
            fill="black" opacity="0.2" />
        <path
            d="M202.402 115.497C201.777 115.974 201.894 116.618 202.662 116.946L231.328 129.044C232.102 129.372 233.236 129.248 233.861 128.777C234.487 128.301 234.369 127.657 233.601 127.329L204.942 115.231C204.167 114.903 203.034 115.027 202.402 115.497Z"
            fill="black" opacity="0.2" />
        <path
            d="M231.328 129.044C232.102 129.372 233.236 129.248 233.862 128.778C233.911 128.741 233.942 128.704 233.979 128.666C233.911 128.623 233.837 128.58 233.75 128.543L205.09 116.445C204.316 116.117 203.183 116.24 202.557 116.711C202.508 116.748 202.477 116.785 202.439 116.822C202.508 116.866 202.582 116.909 202.669 116.946L231.328 129.044Z"
            fill="black" opacity="0.2" />
        <path
            d="M229.154 130.802C229.878 131.105 229.922 131.762 229.253 132.269L220.321 139.018C219.652 139.525 218.525 139.686 217.8 139.377C217.075 139.074 217.032 138.411 217.701 137.91L226.633 131.161C227.302 130.653 228.429 130.492 229.154 130.802Z"
            fill="black" opacity="0.2" />
        <path
            d="M220.322 139.018C219.653 139.526 218.525 139.687 217.801 139.377C217.745 139.353 217.702 139.328 217.658 139.297C217.714 139.235 217.776 139.179 217.85 139.123L226.782 132.375C227.451 131.867 228.578 131.706 229.303 132.016C229.359 132.041 229.402 132.065 229.445 132.096C229.39 132.158 229.328 132.214 229.253 132.27L220.322 139.018Z"
            fill="black" opacity="0.2" />
        <path
            d="M234.388 133.012C235.113 133.315 235.156 133.972 234.487 134.479L225.555 141.228C224.886 141.735 223.759 141.896 223.034 141.587C222.31 141.283 222.266 140.621 222.935 140.12L231.867 133.371C232.536 132.863 233.67 132.702 234.388 133.012Z"
            fill="black" opacity="0.2" />
        <path
            d="M225.562 141.228C224.893 141.736 223.766 141.897 223.041 141.587C222.985 141.562 222.942 141.538 222.898 141.507C222.954 141.445 223.016 141.389 223.09 141.333L232.022 134.585C232.691 134.077 233.818 133.916 234.543 134.226C234.599 134.251 234.642 134.275 234.686 134.306C234.63 134.368 234.568 134.424 234.494 134.48L225.562 141.228Z"
            fill="black" opacity="0.2" />
        <path
            d="M197.695 117.521C198.419 117.825 198.463 118.481 197.794 118.989L188.862 125.737C188.193 126.245 187.066 126.406 186.341 126.096C185.616 125.793 185.573 125.131 186.242 124.629L195.174 117.881C195.843 117.379 196.97 117.218 197.695 117.521Z"
            fill="black" opacity="0.2" />
        <path
            d="M188.869 125.737C188.2 126.245 187.072 126.406 186.348 126.096C186.292 126.071 186.248 126.047 186.205 126.016C186.261 125.954 186.323 125.898 186.397 125.842L195.329 119.094C195.998 118.586 197.125 118.425 197.85 118.735C197.906 118.759 197.949 118.784 197.992 118.815C197.936 118.877 197.875 118.933 197.8 118.988L188.869 125.737Z"
            fill="black" opacity="0.2" />
        <path
            d="M202.935 119.731C203.66 120.035 203.703 120.691 203.034 121.199L194.102 127.947C193.433 128.455 192.306 128.616 191.581 128.306C190.857 128.003 190.813 127.34 191.482 126.839L200.414 120.09C201.083 119.589 202.21 119.428 202.935 119.731Z"
            fill="black" opacity="0.2" />
        <path
            d="M194.103 127.947C193.434 128.455 192.307 128.616 191.582 128.306C191.526 128.281 191.483 128.256 191.439 128.226C191.495 128.164 191.557 128.108 191.631 128.052L200.563 121.304C201.232 120.796 202.359 120.635 203.084 120.945C203.14 120.969 203.183 120.994 203.227 121.025C203.171 121.087 203.109 121.143 203.035 121.198L194.103 127.947Z"
            fill="black" opacity="0.2" />
        <path d="M208.473 154.155L209.309 153.523L211.935 154.625L211.093 155.263L208.473 154.155Z"
            fill="#455A64" />
        <path d="M211.092 155.263L213.47 166.958L211.934 154.625L211.092 155.263Z" fill="#263238" />
        <path d="M208.473 154.155L210.851 165.857L210.535 165.752L208.473 154.155Z"
            fill="#37474F" />
        <path d="M229.23 153.908L228.257 153.499L225.99 155.214L226.956 155.623L229.23 153.908Z"
            fill="#455A64" />
        <path d="M229.23 153.907L229.794 165.832L230.079 165.652L229.23 153.907Z" fill="black" />
        <path d="M238.304 147.041L237.331 146.633L235.064 148.348L236.037 148.756L238.304 147.041Z"
            fill="#455A64" />
        <path d="M227.526 167.547L226.956 155.622L225.99 155.214L227.526 167.547Z" fill="#37474F" />
        <path d="M235.064 148.348L236.607 160.681L236.037 148.756L235.064 148.348Z"
            fill="#37474F" />
        <path d="M238.305 147.041L238.875 158.965L239.159 158.786L238.305 147.041Z" fill="black" />
        <path d="M190.119 146.41L190.962 145.778L193.582 146.88L192.739 147.518L190.119 146.41Z"
            fill="#455A64" />
        <path d="M192.738 147.518L195.117 159.219L193.581 146.88L192.738 147.518Z" fill="#263238" />
        <path d="M190.119 146.41L192.498 158.112L192.182 158.006L190.119 146.41Z" fill="#37474F" />
        <path
            d="M212.889 151.568L212.529 148.744L207.283 146.534L206.527 147.104L206.887 149.927L212.133 152.137L212.889 151.568Z"
            fill="#E0E0E0" />
        <path d="M206.527 147.104L206.887 149.927L212.133 152.137L211.767 149.32L206.527 147.104Z"
            fill="#FAFAFA" />
        <path d="M211.768 149.32L212.529 148.744L212.889 151.567L212.133 152.137L211.768 149.32Z"
            fill="black" opacity="0.2" />
        <path
            d="M194.394 143.773L194.035 140.95L188.795 138.739L188.033 139.309L188.399 142.132L193.639 144.342L194.394 143.773Z"
            fill="#E0E0E0" />
        <path d="M188.033 139.309L188.399 142.132L193.639 144.342L193.28 141.525L188.033 139.309Z"
            fill="#FAFAFA" />
        <path d="M193.279 141.525L194.035 140.949L194.394 143.772L193.639 144.342L193.279 141.525Z"
            fill="black" opacity="0.2" />
        <path
            d="M198.99 104.415C198.99 104.415 203.933 110.786 203.809 111.473C203.468 113.361 203.456 114.5 204.026 116.636C204.367 117.912 217.739 122.413 217.739 122.413L217.882 120.623C217.981 119.416 217.244 114.841 216.804 113.714C215.38 110.049 213.831 106.823 210.87 100.941L198.99 104.415Z"
            fill="#FFA8A7" />
        <path
            d="M203.766 115.516L217.857 120.896L217.733 122.419C217.733 122.419 204.36 117.918 204.02 116.642C203.914 116.228 203.834 115.862 203.766 115.516Z"
            fill="#F28F8F" />
        <path
            d="M204.763 120.332L205.389 125.626L203.456 127.068L202.626 120.035C202.583 119.676 202.824 119.496 203.153 119.639L204.763 120.332Z"
            fill="#263238" />
        <path
            d="M219.938 123.849L220.948 132.418L219.108 133.799L217.684 133.186L216.854 126.152C216.81 125.793 216.501 125.379 216.166 125.236L205.389 120.605L203.153 119.645C202.818 119.503 202.583 119.683 202.626 120.042L203.456 127.075L202.031 126.462L201.022 117.893C201.016 117.856 201.016 117.819 201.016 117.782C201.016 117.441 201.214 117.039 201.474 116.847L202.261 116.259C202.552 116.042 203.06 115.98 203.394 116.123L219.257 122.939C219.591 123.082 219.895 123.49 219.938 123.849Z"
            fill="#455A64" />
        <path
            d="M218.093 125.224L219.102 133.793L217.678 133.18L216.848 126.147C216.804 125.788 216.495 125.373 216.16 125.23L205.383 120.599L203.147 119.64C202.812 119.497 202.577 119.677 202.62 120.036L203.45 127.069L202.026 126.456L201.016 117.887C201.01 117.85 201.01 117.813 201.01 117.776C201.028 117.491 201.245 117.367 201.542 117.491L217.411 124.308C217.746 124.456 218.049 124.865 218.093 125.224Z"
            fill="#37474F" />
        <path
            d="M207.717 120.091C207.476 120.116 207.24 120.209 207.054 120.37C206.714 119.881 206.094 119.59 205.5 119.645C205.239 119.67 204.942 119.794 204.893 120.054C204.874 120.141 204.893 120.227 204.905 120.314C205.047 121.15 205.221 121.986 205.438 122.803C205.593 123.397 205.791 124.029 206.28 124.4C206.683 124.704 207.253 124.766 207.711 124.561C207.909 124.951 208.281 125.236 208.69 125.366C208.789 125.397 209.972 125.416 209.885 125.28C210.387 126.078 211.427 126.858 212.666 126.512C212.666 126.512 213.044 127.397 214.692 127.081C216.339 126.765 216.996 125.013 216.996 125.013L215.732 124.555C215.732 124.555 215.224 124.27 214.902 124.091C214.518 123.88 214.462 123.088 214.153 122.778C213.843 122.462 213.484 122.165 213.063 122.041C212.635 121.911 212.127 121.986 211.824 122.314C211.762 121.973 211.508 121.701 211.254 121.472C211.025 121.261 210.74 121.057 210.418 121.051C210.325 121.051 209.575 121.237 209.681 121.429C209.42 120.952 209.067 120.506 208.584 120.258C208.318 120.122 208.008 120.06 207.717 120.091Z"
            fill="#FFA8A7" />
        <path
            d="M212.727 106.959C213.037 107.442 213.359 107.919 213.693 108.389C215.452 110.872 217.397 113.54 217.267 116.716C217.236 117.441 217.026 118.599 216.827 119.298C216.71 119.713 216.598 120.128 216.481 120.543C216.357 120.976 216.233 121.416 216.035 121.824C215.781 122.35 215.421 122.821 215.081 123.292C214.48 124.115 213.854 124.938 213.049 125.57C213.006 125.601 212.962 125.632 212.907 125.657C212.702 125.743 212.455 125.663 212.3 125.508C211.507 124.759 211.978 123.545 212.306 122.703C212.671 121.768 213.105 120.815 213.012 119.787C213 119.657 212.962 119.255 212.931 118.617C212.925 118.623 211.878 118.438 211.878 118.438C211.878 118.438 208.472 117.874 208.298 116.258C208.199 115.385 208.503 114.537 208.843 113.751C209.11 113.138 209.698 112.432 209.81 111.776C209.94 110.983 209.432 109.894 209.252 109.126C209.017 108.141 208.794 107.157 208.583 106.166C208.546 105.993 208.509 105.801 208.565 105.634C208.627 105.454 208.788 105.324 208.93 105.201C209.568 104.65 210.095 103.969 210.46 103.207C211.197 104.47 211.934 105.733 212.727 106.959Z"
            fill="#FFA8A7" />
        <path
            d="M216.06 121.8C215.385 123.094 214.493 124.27 213.471 125.317C213.298 125.471 213.155 125.719 212.827 125.775C211.241 125.595 211.83 123.478 212.288 122.531C212.654 121.639 213.081 120.741 213.038 119.757C213.174 120.735 212.802 121.701 212.462 122.599C212.115 123.472 211.508 125.248 212.796 125.539C214.072 124.654 215.156 123.1 216.06 121.8Z"
            fill="#F28F8F" />
        <path
            d="M212.184 118.636C211.762 118.457 211.304 118.339 210.902 118.116C210.586 117.943 210.319 117.695 210.096 117.416C209.557 116.742 209.056 115.831 209.136 114.94C209.142 114.884 209.074 114.791 209.05 114.884C208.765 115.9 209.118 117.008 209.718 117.85C209.997 118.246 210.394 118.549 210.821 118.766C211.038 118.878 211.273 118.964 211.521 119.008C211.8 119.057 211.992 119.051 212.239 118.909C212.314 118.865 212.258 118.673 212.184 118.636Z"
            fill="#F28F8F" />
        <path
            d="M175.099 45.5049C170.138 49.2816 170.422 58.6428 173.458 66.8833C176.889 76.1888 180.184 81.9591 185.016 88.6395C189.091 94.2735 200.501 107.319 200.501 107.319C200.501 107.319 207.599 106.031 211.414 101.338L199.076 78.2629C199.076 78.2629 194.827 68.654 191.953 60.8654C188.602 51.7828 184.625 45.6349 175.099 45.5049Z"
            fill="#455A64" />
        <path
            d="M147.553 117.324C132.805 117.324 124.028 109.826 119.277 105.715C119.562 104.688 120.937 99.6604 122.027 95.6794L122.424 94.2369C123.96 88.6523 125.292 83.8293 125.998 72.6541C126.177 69.8247 126.221 67.1624 126.258 64.8159C126.388 56.5506 126.469 51.0961 132.136 49.3811C132.638 49.2263 134.446 48.7867 135.053 48.6443C142.152 47.0408 157.841 45.6787 169.306 45.6787C171.4 45.6787 173.326 45.722 175.017 45.8087C177.581 47.2203 183.695 58.9404 180.703 72.3693C179.489 77.83 178.052 81.681 176.528 85.761C175.68 88.0332 174.806 90.3859 173.939 93.0915C172.168 98.645 171.926 100.8 171.641 103.301C171.567 103.963 171.486 104.657 171.381 105.449C170.873 109.065 166.302 115.572 152.366 117.058C150.737 117.237 149.12 117.324 147.553 117.324Z"
            fill="#EBEBEB" />
        <path
            d="M169.3 45.9883C171.356 45.9883 173.251 46.0316 174.924 46.1183C177.612 47.7032 183.211 59.671 180.399 72.3074C179.191 77.7433 177.754 81.5881 176.237 85.6619C175.388 87.9403 174.509 90.293 173.642 93.0048C171.858 98.5831 171.616 100.756 171.331 103.27C171.257 103.939 171.176 104.626 171.071 105.412C170.582 108.935 166.079 115.293 152.328 116.754C150.718 116.928 149.113 117.015 147.552 117.015C133.071 117.015 124.381 109.721 119.624 105.61C119.995 104.261 121.29 99.5428 122.318 95.7599C122.454 95.2708 122.584 94.7941 122.715 94.3173C124.257 88.7142 125.589 83.8788 126.301 72.6726C126.48 69.837 126.524 67.1686 126.561 64.8159C126.691 56.402 126.772 51.319 132.216 49.6721C132.712 49.5235 134.508 49.0777 135.115 48.9415C142.195 47.338 157.853 45.9883 169.3 45.9883ZM169.3 45.3691C157.599 45.3691 142.071 46.7374 134.979 48.341C134.372 48.4772 132.557 48.9229 132.037 49.0839C124.48 51.3685 126.493 59.9124 125.681 72.6355C124.913 84.7085 123.452 89.2405 121.724 95.5989C120.509 100.057 118.924 105.827 118.924 105.827C123.545 109.826 132.532 117.64 147.552 117.64C149.101 117.64 150.711 117.559 152.39 117.38C166.556 115.869 171.152 109.282 171.684 105.505C172.211 101.734 172 100.193 174.23 93.1967C176.633 85.6681 179.098 80.9937 181 72.4436C183.973 59.0828 177.891 46.917 175.091 45.5115C173.326 45.4125 171.375 45.3691 169.3 45.3691Z"
            fill="#E0E0E0" />
        <path
            d="M169.918 13.2852C169.918 13.2852 172.953 13.4028 174.408 15.6936C175.858 17.9843 176.774 22.182 175.021 26.9121C173.089 32.119 169.273 37.1587 168.443 38.626C167.613 40.0934 165.997 40.4586 165.997 40.4586L166.362 34.0693L166.74 29.6239C166.74 29.6239 163.247 26.2497 163.042 23.0426C162.776 18.913 164.455 16.6284 164.455 16.6284L169.918 13.2852Z"
            fill="#37474F" />
        <path
            d="M141.841 12.9636C145 4.07294 149.875 4.12866 157.072 4.7416C165.855 5.48455 170.278 9.9175 170.786 13.5332L164.474 19.4459L141.785 20.2136C139.865 19.2973 138.373 15.2296 141.841 12.9636Z"
            fill="#37474F" />
        <path
            d="M172.148 36.1251C168.784 37.6296 167.353 34.9612 167.353 34.9612L166.796 46.1364C172.823 55.479 154.383 56.3706 149.923 47.6099L150.208 43.6723C150.208 43.6723 149.1 43.6413 147.347 43.3008C144.429 42.7436 141.921 40.3414 141.147 37.1343C140.007 32.398 140.471 24.8818 142.491 16.9384C142.881 15.4029 143.599 13.7375 145.043 13.0812C148.617 11.4529 151.794 14.0656 156.638 16.1273C158.645 16.9817 163.563 17.4832 164.876 16.9198C163.104 18.7524 162.931 24.7208 165.377 27.2221C165.792 28.0765 166.238 28.5841 166.592 28.9061C167.638 29.8719 168.592 27.4945 169.521 26.5782C170.463 25.6743 173.869 24.9375 175.226 28.0827C176.607 31.2835 175.269 34.7321 172.148 36.1251Z"
            fill="#FFA8A7" />
        <path
            d="M150.209 43.6724C154.062 43.7714 157.487 43.4 159.791 42.5146C162.095 41.6293 164.201 38.6203 164.957 35.5928C164.883 38.0445 163.669 42.3598 160.169 44.0562C156.669 45.7527 152.656 45.7279 150.135 45.7031L150.209 43.6724Z"
            fill="#F28F8F" />
        <path
            d="M156.479 20.6403L159.768 21.9281C160.102 20.987 159.637 19.9407 158.733 19.5816C157.823 19.2225 156.813 19.6992 156.479 20.6403Z"
            fill="#37474F" />
        <path
            d="M144.295 20.4548L147.565 19.0556C147.212 18.1331 146.19 17.6935 145.286 18.0773C144.388 18.4674 143.942 19.5323 144.295 20.4548Z"
            fill="#37474F" />
        <path
            d="M158.572 24.6777C158.565 25.4701 157.915 26.1078 157.116 26.1016C156.323 26.0955 155.685 25.4454 155.691 24.6467C155.698 23.8542 156.348 23.2165 157.147 23.2227C157.94 23.2289 158.578 23.879 158.572 24.6777Z"
            fill="#263238" />
        <path
            d="M147.589 23.1601C147.583 23.9526 146.933 24.5903 146.134 24.5841C145.341 24.5779 144.703 23.9278 144.709 23.1291C144.715 22.3366 145.366 21.6989 146.165 21.7051C147.075 21.7175 147.595 22.25 147.589 23.1601Z"
            fill="#263238" />
        <path
            d="M152.502 21.6436L151.555 30.8252L146.674 29.1659C148.309 25.8908 150.254 23.3833 152.502 21.6436Z"
            fill="#F28F8F" />
        <path
            d="M155.771 32.3047L150.023 34.3726C150.569 36.0195 152.29 36.8924 153.882 36.3228C155.468 35.747 156.317 33.9516 155.771 32.3047Z"
            fill="#B16668" />
        <path
            d="M155.189 33.3699C155.437 33.308 155.684 33.2832 155.926 33.2832C155.945 34.6143 155.164 35.865 153.888 36.3231C153.566 36.4408 153.244 36.4779 152.922 36.4841C152.643 35.1282 153.634 33.7476 155.189 33.3699Z"
            fill="#F28F8F" />
        <path
            d="M157.711 13.8806C154.472 12.6486 148.922 12.2585 145.887 12.599C146.562 10.494 146.766 7.77604 152.112 8.32706C157.457 8.8657 158.275 11.2122 157.711 13.8806Z"
            fill="#37474F" />
        <path
            d="M176.819 22.0037C176.448 23.762 175.841 25.4089 175.029 26.9134C174.701 26.3933 174.329 25.8794 173.933 25.3779C171.821 22.6786 169.009 20.3011 165.806 18.3385L165.794 18.3323C158.621 13.955 149.491 11.7262 141.842 12.9521C142.288 11.4909 142.92 10.1165 143.694 8.85963C147.565 2.5012 155.134 -1.02783 162.827 0.581903C172.614 2.64979 178.869 12.2339 176.819 22.0037Z"
            fill="#933BFF" />
        <path
            d="M171.053 3.26851C170.199 2.72987 165.826 0.872486 165.473 0.723896C163.206 -0.248134 159.433 -0.625801 155.203 2.12312C149.727 5.6893 148.049 11.2305 148.049 11.2305L152.694 13.2736L154.212 13.5894C155.172 10.1222 160.691 3.02086 167.275 3.46663C167.585 3.4852 167.888 3.51616 168.198 3.58426C169.009 3.70809 169.845 3.97431 170.675 4.38294C170.675 4.38294 172.292 5.80693 172.992 6.70466C172.992 6.71085 173.11 4.53772 171.053 3.26851Z"
            fill="#933BFF" />
        <path
            d="M171.053 3.26851C170.199 2.72987 165.826 0.872486 165.473 0.723896C163.206 -0.248134 159.433 -0.625801 155.203 2.12312C149.727 5.6893 148.049 11.2305 148.049 11.2305L152.694 13.2736L154.212 13.5894C155.172 10.1222 160.691 3.02086 167.275 3.46663C167.585 3.4852 167.888 3.51616 168.198 3.58426C169.009 3.70809 169.845 3.97431 170.675 4.38294C170.675 4.38294 172.292 5.80693 172.992 6.70466C172.992 6.71085 173.11 4.53772 171.053 3.26851Z"
            fill="white" opacity="0.45" />
        <path
            d="M154.211 13.6017C155.338 9.56502 162.703 0.519576 170.675 4.38293C170.675 4.38293 172.304 5.81311 172.997 6.70466C172.997 6.70466 173.096 4.5439 171.052 3.2685C169.008 1.9931 164.734 0.996304 159.841 4.17862C154.366 7.7386 152.693 13.2798 152.693 13.2798L154.211 13.6017Z"
            fill="#933BFF" />
        <path
            d="M154.211 13.6017C155.338 9.56502 162.703 0.519576 170.675 4.38293C170.675 4.38293 172.304 5.81311 172.997 6.70466C172.997 6.70466 173.096 4.5439 171.052 3.2685C169.008 1.9931 164.734 0.996304 159.841 4.17862C154.366 7.7386 152.693 13.2798 152.693 13.2798L154.211 13.6017Z"
            fill="black" opacity="0.3" />
        <path
            d="M166.085 16.9451C165.769 16.5984 164.5 12.8031 158.875 8.94598C155.407 6.56853 147.856 5.62746 144.462 5.29932C138.516 4.73591 136.955 5.83796 136.781 6.70474C136.738 6.90905 136.552 7.8625 136.497 8.07301C136.447 8.2897 136.478 8.48782 136.558 8.6488C137.296 10.0976 141.836 12.9579 141.836 12.9579C149.485 11.732 158.615 13.9547 165.788 18.3381L166.085 16.9451Z"
            fill="#933BFF" />
        <path
            d="M166.085 16.9451C165.769 16.5984 164.5 12.8031 158.875 8.94598C155.407 6.56853 147.856 5.62746 144.462 5.29932C138.516 4.73591 136.955 5.83796 136.781 6.70474C136.738 6.90905 136.552 7.8625 136.497 8.07301C136.447 8.2897 136.478 8.48782 136.558 8.6488C137.296 10.0976 141.836 12.9579 141.836 12.9579C149.485 11.732 158.615 13.9547 165.788 18.3381L166.085 16.9451Z"
            fill="black" opacity="0.15" />
        <path
            d="M165.794 18.3384C158.621 13.9611 149.491 11.7323 141.842 12.9582C141.842 12.9582 137.308 10.0916 136.564 8.64903C136.174 7.85036 136.812 5.99298 144.171 6.69259C147.565 7.01454 155.115 7.95561 158.584 10.3392C164.208 14.1964 165.478 17.9917 165.794 18.3384Z"
            fill="#933BFF" />
        <path
            d="M165.794 18.3384C158.621 13.9611 149.491 11.7323 141.842 12.9582C141.842 12.9582 137.308 10.0916 136.564 8.64903C136.174 7.85036 136.812 5.99298 144.171 6.69259C147.565 7.01454 155.115 7.95561 158.584 10.3392C164.208 14.1964 165.478 17.9917 165.794 18.3384Z"
            fill="black" opacity="0.3" />
        <path
            d="M117.896 106.31L119.383 102.254C119.383 102.254 129.089 106.124 136.231 97.7039C141.204 91.8407 144.648 75.0314 144.648 75.0314C144.648 75.0314 161.069 77.025 177.21 72.9697C177.21 72.9697 175.309 102.669 170.155 115.38C154.138 123.862 127.392 124.308 117.896 106.31Z"
            fill="#37474F" />
        <path
            d="M150.496 81.0179C150.496 81.0179 163.732 81.3956 171.289 79.7178C170.924 86.7944 168.638 91.4502 159.508 92.156C152.447 92.7071 149.282 87.6921 150.496 81.0179Z"
            fill="#455A64" />
        <path
            d="M144.649 75.0314C144.649 75.0314 147.721 60.7729 144.271 52.2166C142.289 47.3069 139.322 47.4555 139.322 47.4555C139.322 47.4555 143.032 46.3535 146.359 46.7187C148.285 47.6103 149.84 50.6873 150.62 55.1698C151.5 60.2157 151.568 68.2086 150.218 77.4151L144.649 75.0314Z"
            fill="#37474F" />
        <path
            d="M171.369 75.1614C171.369 75.1614 173.927 58.3521 170.477 49.8019C169.647 47.7526 168.507 46.6691 167.461 46.1057L166.816 45.8271L166.841 45.2823C168.445 45.1399 171.536 45.0223 173.202 45.208C175.822 47.0654 176.145 48.5265 176.925 53.009C177.805 58.0549 177.811 66.6855 177.024 75.4647L171.369 75.1614Z"
            fill="#37474F" />
        <path
            d="M111.028 121.479L100.542 143.284L58.051 122.866C56.3167 122.16 55.115 120.29 54.8983 117.442C54.4833 112 57.8094 105.09 62.3187 102.013C64.5733 100.472 66.704 100.181 68.3144 100.961L111.028 121.479Z"
            fill="#933BFF" />
        <path
            d="M111.028 121.479L100.542 143.284L58.051 122.866C56.3167 122.16 55.115 120.29 54.8983 117.442C54.4833 112 57.8094 105.09 62.3187 102.013C64.5733 100.472 66.704 100.181 68.3144 100.961L111.028 121.479Z"
            fill="white" opacity="0.25" />
        <path
            d="M113.777 125.62L113.784 125.608C114.199 128.778 118.757 129.118 118.757 129.118L111.337 144.547C111.337 144.547 108.228 141.253 105.484 142.857L105.49 142.844C101.42 144.98 97.989 142.974 97.6111 137.947C97.1961 132.505 100.522 125.596 105.032 122.518C109.194 119.689 112.904 121.113 113.777 125.62Z"
            fill="#933BFF" />
        <path
            d="M113.777 125.62L113.784 125.608C114.199 128.778 118.757 129.118 118.757 129.118L111.337 144.547C111.337 144.547 108.228 141.253 105.484 142.857L105.49 142.844C101.42 144.98 97.989 142.974 97.6111 137.947C97.1961 132.505 100.522 125.596 105.032 122.518C109.194 119.689 112.904 121.113 113.777 125.62Z"
            fill="black" opacity="0.1" />
        <path
            d="M116.671 128.648C117.773 129.051 118.764 129.131 118.764 129.131L111.344 144.56C111.344 144.56 110.662 143.848 109.659 143.241C109.492 138.059 112.521 131.756 116.671 128.648Z"
            fill="black" opacity="0.05" />
        <path
            d="M127.727 129.502L127.107 130.79C127.405 131.539 127.603 132.412 127.677 133.409C128.092 138.851 124.766 145.761 120.257 148.838C119.433 149.401 118.628 149.791 117.853 150.033L117.234 151.32L114.261 149.89C112.651 149.116 111.548 147.277 111.344 144.553C110.929 139.111 114.255 132.202 118.764 129.125C121.019 127.583 123.143 127.292 124.76 128.072L127.727 129.502Z"
            fill="#933BFF" />
        <path
            d="M127.727 129.502L127.107 130.79C127.405 131.539 127.603 132.412 127.677 133.409C128.092 138.851 124.766 145.761 120.257 148.838C119.433 149.401 118.628 149.791 117.853 150.033L117.234 151.32L114.261 149.89C112.651 149.116 111.548 147.277 111.344 144.553C110.929 139.111 114.255 132.202 118.764 129.125C121.019 127.583 123.143 127.292 124.76 128.072L127.727 129.502Z"
            fill="white" opacity="0.25" />
        <path
            d="M114.31 145.984C113.895 140.542 117.222 133.632 121.731 130.555C126.24 127.478 130.229 129.398 130.644 134.84C131.059 140.282 127.733 147.191 123.224 150.268C118.714 153.346 114.725 151.426 114.31 145.984Z"
            fill="#933BFF" />
        <path
            d="M114.31 145.984C113.895 140.542 117.222 133.632 121.731 130.555C126.24 127.478 130.229 129.398 130.644 134.84C131.059 140.282 127.733 147.191 123.224 150.268C118.714 153.346 114.725 151.426 114.31 145.984Z"
            fill="black" opacity="0.15" />
        <path
            d="M126.352 147.315C125.738 148.076 125.076 148.757 124.376 149.364L121.941 143.817L124.221 141.86L126.352 147.315Z"
            fill="black" opacity="0.15" />
        <path
            d="M61.4027 111.059C60.839 112.236 61.3346 113.641 62.5052 114.211L92.8558 128.797C94.0326 129.361 95.4387 128.865 96.0085 127.695C96.5722 126.519 96.0767 125.113 94.906 124.544L64.5554 109.957C63.3786 109.388 61.9664 109.883 61.4027 111.059Z"
            fill="#933BFF" />
        <path
            d="M66.1773 104.409C65.3164 105.251 65.4464 106.322 66.4623 106.811L97.3827 121.671C98.3985 122.16 99.9222 121.875 100.783 121.033C101.644 120.191 101.514 119.12 100.498 118.631L69.5778 103.772C68.5558 103.289 67.0383 103.567 66.1773 104.409Z"
            fill="#933BFF" />
        <path
            d="M59.1903 118.934C59.3079 117.739 60.2308 117.169 61.2467 117.652L92.1733 132.511C93.1891 133 93.92 134.362 93.8023 135.557C93.6846 136.752 92.7617 137.328 91.7459 136.839L60.8193 121.98C59.7973 121.497 59.0726 120.135 59.1903 118.934Z"
            fill="#933BFF" />
        <path
            d="M200.345 174.154L200.778 179.844L186.198 176.296C186.198 176.296 182.958 171.281 179.985 169.857L123.539 142.74L121.514 138.139L123.106 137.05L179.551 164.168C182.524 165.598 185.219 163.437 185.219 163.437L200.345 174.154Z"
            fill="#455A64" />
        <path
            d="M198.747 175.244L199.18 180.934L184.6 177.386C184.6 177.386 181.36 172.371 178.387 170.947L121.941 143.829L121.508 138.14L177.954 165.257C180.927 166.688 183.621 164.527 183.621 164.527L198.747 175.244Z"
            fill="#37474F" />
        <path
            d="M199.18 180.934C195.52 180.116 188.192 178.445 184.544 177.597C182.754 175.343 180.945 172.631 178.319 171.251C159.483 162.292 140.554 153.209 121.941 143.823C140.901 152.497 159.83 161.586 178.585 170.712C181.274 172.254 183.064 174.78 184.779 177.268L184.649 177.176C188.267 178.092 195.569 179.98 199.18 180.934Z"
            fill="#263238" />
        <path d="M199.18 180.934L200.772 179.844L200.344 174.154L198.746 175.244L199.18 180.934Z"
            fill="#263238" />
        <path d="M200.345 174.154L198.746 175.244L183.627 164.521L185.219 163.425L200.345 174.154Z"
            fill="#455A64" />
        <path
            d="M104.432 134.635C103.515 133.52 102.673 131.341 101.905 128.765C101.131 126.19 99.9723 125.49 98.7273 123.911C97.4824 122.333 98.0026 121.435 98.3433 120.562C98.5291 120.079 108.353 95.6545 108.353 95.6545C108.353 95.6545 118.022 86.9743 123.9 81.1917C131.977 74.2265 135.489 59.6213 132.8 56.2842C130.688 56.9714 127.851 56.408 122.128 58.6554C119.211 59.8008 117.582 61.8377 114.039 65.8064C107.51 73.1306 100.945 81.2598 97.9593 84.343C95.8843 86.4914 94.0757 88.6955 92.682 94.4905C91.2326 100.521 87.6215 116.606 87.2994 117.633C86.2588 120.989 83.8742 125.459 83.7441 127.57C83.614 129.682 83.5397 132.325 83.6078 134.04C83.6759 135.731 84.9085 136.69 84.9457 136.715C85.0138 137.093 85.1006 137.446 85.1625 137.582C85.3174 137.935 85.6085 138.275 85.9244 138.498C86.4013 138.845 86.8658 139 87.4419 139.111C87.5224 139.718 87.9684 140.213 88.4577 140.585C88.8479 140.888 89.2939 141.136 89.777 141.235C90.2602 141.334 90.7928 141.266 91.1954 140.975C91.245 140.937 91.2946 140.9 91.3503 140.894C91.4432 140.888 91.5237 140.962 91.5857 141.03C92.075 141.544 92.7749 141.848 93.481 141.854C94.1871 141.86 94.5774 141.724 95.1534 141.315C95.5065 141.067 95.6427 140.931 95.6427 140.931L94.9738 140.609C94.9738 140.609 94.757 140.417 94.6269 139.86C94.5402 139.501 94.4535 139.111 94.4907 138.74C94.6269 137.526 94.4349 136.919 95.0791 133.966C95.7233 131.013 96.2374 130.115 96.9806 130.152C97.7239 130.189 98.6406 132.4 100.883 134.87C103.131 137.334 105.349 135.749 104.432 134.635Z"
            fill="#FFA8A7" />
        <path
            d="M87.2617 138.727C87.2679 138.845 87.2803 138.963 87.2865 139.074C87.3422 139.086 87.3918 139.099 87.4475 139.111C87.4723 139.303 87.5466 139.476 87.6333 139.644C87.6147 139.334 87.5962 139.025 87.59 138.715C87.5094 137.105 87.5652 135.495 87.6209 133.867C87.2865 135.465 87.2183 137.099 87.2617 138.727Z"
            fill="#F28F8F" />
        <path
            d="M84.9523 136.715C84.7045 135.929 84.6612 135.106 84.6426 134.301C84.6674 133.49 84.7045 132.679 84.9027 131.88C84.9709 132.697 84.9461 133.496 84.9647 134.301L84.9523 136.715Z"
            fill="#F28F8F" />
        <path
            d="M91.5854 141.03C90.3838 138.64 90.6935 134.895 90.6935 134.895C90.6935 134.895 89.6033 138.009 91.35 140.888L91.5854 141.03Z"
            fill="#F28F8F" />
        <path
            d="M134.981 48.3408C123.937 49.9753 121.497 53.9563 113.067 61.8935C106.024 68.5182 102.438 72.5363 98.4551 77.4274C95.2776 81.3279 93.661 87.3458 92.3293 91.7726C90.9914 96.1993 88.0059 112.297 88.0059 112.297C91.4126 110.037 98.5294 112.99 100.381 116.686L112.441 91.5435C112.441 91.5435 125.591 81.266 130.23 77.1364C134.87 73.0068 143.609 62.5374 134.981 48.3408Z"
            fill="#455A64" />
        <path
            d="M136.36 217.673C133.715 215.995 131.045 214.361 128.376 212.726C125.7 211.11 123.012 209.5 120.311 207.928C117.611 206.349 114.891 204.814 112.141 203.322C114.743 205.074 117.369 206.789 120.02 208.454C122.665 210.132 125.335 211.773 128.004 213.401C130.68 215.017 133.368 216.627 136.069 218.199C138.769 219.778 141.488 221.313 144.239 222.805C141.637 221.053 139.011 219.338 136.36 217.673ZM123.978 203.359C126.654 204.975 129.342 206.584 132.043 208.157C134.743 209.736 137.462 211.271 140.212 212.763C137.611 211.011 134.985 209.296 132.334 207.631C129.689 205.953 127.019 204.312 124.35 202.684C121.674 201.068 118.986 199.458 116.285 197.886C113.585 196.307 110.865 194.771 108.115 193.279C110.717 195.031 113.343 196.746 115.994 198.412C118.639 200.09 121.302 201.73 123.978 203.359Z"
            fill="#E0E0E0" />
        <path
            d="M105.373 5.2745C110.186 6.16604 114.212 8.85305 116.906 12.5059L118.064 14.2828C120.183 17.9666 121.056 22.381 120.226 26.8758C118.362 36.9243 108.668 43.5861 98.6152 41.7225C94.1184 40.8867 90.3029 38.4907 87.6271 35.1969L86.3821 33.4757C83.9355 29.6495 82.8701 24.9256 83.7559 20.1212C85.6202 10.0727 95.3138 3.41093 105.373 5.2745Z"
            fill="white" />
        <path
            d="M82.2071 19.8736C80.2064 30.7826 87.4534 41.283 98.3672 43.2828C108.154 45.0783 117.612 39.4256 120.901 30.3678L127.039 29.1977C128.086 28.9995 128.34 27.6127 127.436 27.0555L122.109 23.7865C122.251 14.1529 115.419 5.51605 105.627 3.72058C94.7127 1.7208 84.2077 8.96459 82.2071 19.8736ZM105.342 5.2684C110.154 6.15375 114.187 8.82838 116.887 12.4812L118.052 14.2581C120.176 17.9357 121.056 22.3563 120.232 26.8512C118.386 36.9058 108.705 43.58 98.6459 41.735C94.1491 40.9115 90.3274 38.5155 87.6454 35.228L86.4004 33.513C83.9476 29.6868 82.8698 24.969 83.7556 20.1584C85.5952 10.1038 95.2826 3.4234 105.342 5.2684Z"
            fill="#455A64" />
        <path
            d="M99.1782 35.4014C98.373 35.4014 97.605 35.067 97.0537 34.4789L90.4633 27.4456C89.367 26.2754 89.4289 24.4366 90.5996 23.3346C91.7702 22.2387 93.6098 22.3006 94.7124 23.4708L98.9924 28.04L109.12 15.2178C110.111 13.9548 111.944 13.7443 113.201 14.7349C114.465 15.7317 114.676 17.5581 113.685 18.815L101.458 34.2931C100.931 34.9556 100.145 35.358 99.2959 35.3952C99.2588 35.4014 99.2154 35.4014 99.1782 35.4014Z"
            fill="#933BFF" />
    </g>
    <defs>
        <clipPath id="clip0_725_20953">
            <rect fill="white" height="282" width="282" />
        </clipPath>
    </defs>
</svg>
